<?xml version="1.0" encoding="UTF-8" standalone="no"?>
<svg
   xmlns:dc="http://purl.org/dc/elements/1.1/"
   xmlns:cc="http://creativecommons.org/ns#"
   xmlns:rdf="http://www.w3.org/1999/02/22-rdf-syntax-ns#"
   xmlns:svg="http://www.w3.org/2000/svg"
   xmlns="http://www.w3.org/2000/svg"
   xmlns:xlink="http://www.w3.org/1999/xlink"
   xmlns:sodipodi="http://sodipodi.sourceforge.net/DTD/sodipodi-0.dtd"
   xmlns:inkscape="http://www.inkscape.org/namespaces/inkscape"
   inkscape:version="1.0 (4035a4fb49, 2020-05-01)"
   sodipodi:docname="folder-unlocked.svg"
   width="64"
   version="1.1"
   height="64"
   id="svg2">
  <sodipodi:namedview
     inkscape:document-rotation="0"
     inkscape:current-layer="svg2"
     inkscape:window-maximized="1"
     inkscape:window-y="0"
     inkscape:window-x="0"
     inkscape:cy="15.10311"
     inkscape:cx="44.155843"
     inkscape:zoom="2.6074563"
     showgrid="false"
     id="namedview18"
     inkscape:window-height="1015"
     inkscape:window-width="1920"
     inkscape:pageshadow="2"
     inkscape:pageopacity="0"
     guidetolerance="10"
     gridtolerance="10"
     objecttolerance="10"
     borderopacity="1"
     bordercolor="#666666"
     pagecolor="#ffffff" />
  <defs
     id="defs5455">
    <linearGradient
       id="linearGradient835"
       inkscape:collect="always">
      <stop
         id="stop831"
         offset="0"
         style="stop-color:#00d4aa;stop-opacity:1" />
      <stop
         id="stop833"
         offset="1"
         style="stop-color:#0094d4;stop-opacity:1" />
    </linearGradient>
    <linearGradient
       id="linearGradient828"
       inkscape:collect="always">
      <stop
         id="stop824"
         offset="0"
         style="stop-color:#1a76ff;stop-opacity:1" />
      <stop
         id="stop826"
         offset="1"
         style="stop-color:#00d4aa;stop-opacity:1" />
    </linearGradient>
    <linearGradient
       id="linearGradient4178"
       xlink:href="#linearGradient4172-5"
       y1="541.79797"
       y2="499.78421"
       gradientUnits="userSpaceOnUse"
       x2="0"
       gradientTransform="matrix(1 0 0 0.99967455 0 0.17645)" />
    <linearGradient
       id="linearGradient4172-5">
      <stop
         style="stop-color:#3daee9"
         id="stop4174-6" />
      <stop
         offset="1"
         style="stop-color:#6cc1ef"
         id="stop4176-6" />
    </linearGradient>
    <linearGradient
       gradientUnits="userSpaceOnUse"
       y2="503.798"
       x2="444.57143"
       y1="503.798"
       x1="388.57143"
       id="linearGradient830"
       xlink:href="#linearGradient828"
       inkscape:collect="always" />
    <linearGradient
       gradientUnits="userSpaceOnUse"
       y2="520.79811"
       x2="445.57143"
       y1="520.79811"
       x1="387.57143"
       id="linearGradient837"
       xlink:href="#linearGradient835"
       inkscape:collect="always" />
  </defs>
  <metadata
     id="metadata5458">
    <rdf:RDF>
      <cc:Work
         rdf:about="">
        <dc:format>image/svg+xml</dc:format>
        <dc:type
           rdf:resource="http://purl.org/dc/dcmitype/StillImage" />
        <dc:title />
      </cc:Work>
    </rdf:RDF>
  </metadata>
  <g
     id="layer1"
     transform="matrix(1 0 0 1 -384.57143 -483.798)">
    <g
       id="layer1-1"
       transform="matrix(1 0 0 1 0 0.000005)">
      <path
         style="fill:url(#linearGradient830);fill-opacity:1"
         id="rect4180"
         d="m 388.57143,489.79812 0,5 0,22 c 0,0.55373 0.446,1 1,1 l 54,0 c 0.55399,0 1,-0.44627 1,-1 l 0,-21.99023 c 0,-0.003 -0.002,-0.006 -0.002,-0.01 l 0.002,0 0,-1 -28,0 -4,-4 -24,0 z" />
      <path
         style="fill:url(#linearGradient837);fill-opacity:1"
         id="rect4113"
         d="m 410.57143,499.79812 -4,4 -19,0 0,1 0.002,0 c -5e-5,0.004 -0.002,0.008 -0.002,0.0117 l 0,35.98828 0,1 1,0 56,0 1,0 0,-1 0,-35.98828 0,-0.0117 0,-5 z" />
      <path
         style="fill:#ffffff;fill-opacity:0.235294;fill-rule:evenodd"
         id="path4224"
         d="m 387.57144,503.79812 0,1 19.99999,0 3,-5 -4,4 z" />
      <path
         style="fill-opacity:0.235294;fill-rule:evenodd"
         id="path4228"
         d="m 388.57143,502.79812 0,1 18,0 4,-4 -6,3 z" />
      <path
         style="fill-opacity:0.235294"
         id="path4151-2"
         d="m 387.57143,540.7981 0,1 1,0 56,0 1,0 0,-1 -1,0 -56,0 -1,0 z" />
      <path
         style="fill:#ffffff;fill-opacity:0.235294;fill-rule:evenodd"
         id="path4196"
         d="m 28,6 3,5 2,0 27,0 0,-1 -27,0 -1,0 z"
         transform="matrix(1 0 0 1 384.57143 483.798)" />
    </g>
    <path
       style="fill:#090811;fill-opacity:1"
       d="M 32 27 C 29.23 27 27 29.23 27 32 L 27 33 L 28 33 L 28 32 C 28 29.57625 29.92251 28 32 28 C 34.0775 28 36 29.57625 36 32 L 36 37 L 28 37 L 27 37 L 24 37 L 24 38 L 24 47 L 25.75 47 L 38.25 47 L 40 47 L 40 37 L 38.25 37 L 37 37 L 37 32 C 37 29.23 34.77 27 32 27 z M 25 38 L 39 38 L 39 46 L 25 46 L 25 38 z "
       transform="translate(384.57143,483.798)"
       id="rect4136" />
  </g>
</svg>
