<?xml version="1.0" encoding="UTF-8" standalone="no"?>
<svg
   xmlns:dc="http://purl.org/dc/elements/1.1/"
   xmlns:cc="http://creativecommons.org/ns#"
   xmlns:rdf="http://www.w3.org/1999/02/22-rdf-syntax-ns#"
   xmlns:svg="http://www.w3.org/2000/svg"
   xmlns="http://www.w3.org/2000/svg"
   xmlns:xlink="http://www.w3.org/1999/xlink"
   xmlns:sodipodi="http://sodipodi.sourceforge.net/DTD/sodipodi-0.dtd"
   xmlns:inkscape="http://www.inkscape.org/namespaces/inkscape"
   inkscape:version="1.0 (4035a4fb49, 2020-05-01)"
   sodipodi:docname="folder-open.svg"
   id="svg15"
   height="64"
   version="1.1"
   width="64">
  <sodipodi:namedview
     inkscape:document-rotation="0"
     inkscape:lockguides="true"
     inkscape:current-layer="layer1"
     inkscape:window-maximized="1"
     inkscape:window-y="0"
     inkscape:window-x="0"
     inkscape:cy="35.447834"
     inkscape:cx="29.845569"
     inkscape:zoom="5.2149126"
     showgrid="false"
     id="namedview17"
     inkscape:window-height="1015"
     inkscape:window-width="1920"
     inkscape:pageshadow="2"
     inkscape:pageopacity="0"
     guidetolerance="10"
     gridtolerance="10"
     objecttolerance="10"
     borderopacity="1"
     bordercolor="#666666"
     pagecolor="#ffffff" />
  <defs
     id="defs5455">
    <linearGradient
       id="linearGradient829"
       inkscape:collect="always">
      <stop
         id="stop825"
         offset="0"
         style="stop-color:#00d4aa;stop-opacity:1" />
      <stop
         id="stop827"
         offset="1"
         style="stop-color:#0094d4;stop-opacity:1" />
    </linearGradient>
    <linearGradient
       id="linearGradient822"
       inkscape:collect="always">
      <stop
         id="stop818"
         offset="0"
         style="stop-color:#1a76ff;stop-opacity:1" />
      <stop
         id="stop820"
         offset="1"
         style="stop-color:#00d4aa;stop-opacity:1" />
    </linearGradient>
    <linearGradient
       gradientUnits="userSpaceOnUse"
       y2="503.798"
       x2="444.57143"
       y1="503.798"
       x1="388.57143"
       id="linearGradient824"
       xlink:href="#linearGradient822"
       inkscape:collect="always" />
    <linearGradient
       gradientUnits="userSpaceOnUse"
       y2="524.79811"
       x2="445.57143"
       y1="524.79811"
       x1="387.57143"
       id="linearGradient831"
       xlink:href="#linearGradient829"
       inkscape:collect="always" />
  </defs>
  <metadata
     id="metadata5458">
    <rdf:RDF>
      <cc:Work
         rdf:about="">
        <dc:format>image/svg+xml</dc:format>
        <dc:type
           rdf:resource="http://purl.org/dc/dcmitype/StillImage" />
      </cc:Work>
    </rdf:RDF>
  </metadata>
  <g
     transform="matrix(1 0 0 1 -384.57143 -483.798)"
     id="layer1"
     inkscape:groupmode="layer"
     inkscape:label="Capa 1">
    <path
       d="m 388.57143,489.79812 0,5 0,22 c 0,0.55373 0.446,1 1,1 l 54,0 c 0.55399,0 1,-0.44627 1,-1 l 0,-21.99023 c 0,-0.003 -0.002,-0.006 -0.002,-0.01 l 0.002,0 0,-1 -28,0 -4,-4 -24,0 z"
       id="rect4180"
       style="fill:url(#linearGradient824);fill-opacity:1"
       inkscape:connector-curvature="0" />
    <path
       d="m 410.57143,507.79812 -4,4 -19,0 0,1 0.002,0 c -5e-5,0.004 -0.002,0.008 -0.002,0.0117 l 0,27.98828 0,1 1,0 56,0 1,0 0,-1 0,-27.98828 0,-0.0117 0,-5 z"
       id="rect4113"
       style="fill:url(#linearGradient831);fill-opacity:1"
       inkscape:connector-curvature="0" />
    <path
       d="m 387.57144,511.79812 0,1 19.99999,0 3,-5 -4,4 z"
       id="path4224"
       style="fill:#ffffff;fill-opacity:0.235294;fill-rule:evenodd"
       inkscape:connector-curvature="0" />
    <path
       d="m 388.57143,510.79812 0,1 18,0 4,-4 -6,3 z"
       id="path4228"
       style="fill-opacity:0.235294;fill-rule:evenodd"
       inkscape:connector-curvature="0" />
    <path
       d="m 387.57143,540.7981 0,1 1,0 56,0 1,0 0,-1 -1,0 -56,0 -1,0 z"
       id="path4151-2"
       style="fill-opacity:0.235294"
       inkscape:connector-curvature="0" />
    <path
       transform="matrix(1 0 0 1 384.57143 483.798)"
       d="m 28,6 3,5 2,0 27,0 0,-1 -27,0 -1,0 z"
       id="path4196"
       style="fill:#ffffff;fill-opacity:0.235294;fill-rule:evenodd"
       inkscape:connector-curvature="0" />
  </g>
</svg>
