<?xml version="1.0" encoding="UTF-8" standalone="no"?>
<svg
   xmlns:dc="http://purl.org/dc/elements/1.1/"
   xmlns:cc="http://creativecommons.org/ns#"
   xmlns:rdf="http://www.w3.org/1999/02/22-rdf-syntax-ns#"
   xmlns:svg="http://www.w3.org/2000/svg"
   xmlns="http://www.w3.org/2000/svg"
   xmlns:xlink="http://www.w3.org/1999/xlink"
   xmlns:sodipodi="http://sodipodi.sourceforge.net/DTD/sodipodi-0.dtd"
   xmlns:inkscape="http://www.inkscape.org/namespaces/inkscape"
   width="32"
   height="32"
   version="1.1"
   id="svg17"
   sodipodi:docname="applications.svg"
   inkscape:version="1.0 (4035a4fb49, 2020-05-01)">
  <metadata
     id="metadata23">
    <rdf:RDF>
      <cc:Work
         rdf:about="">
        <dc:format>image/svg+xml</dc:format>
        <dc:type
           rdf:resource="http://purl.org/dc/dcmitype/StillImage" />
      </cc:Work>
    </rdf:RDF>
  </metadata>
  <defs
     id="defs21">
    <linearGradient
       id="linearGradient853"
       inkscape:collect="always">
      <stop
         id="stop849"
         offset="0"
         style="stop-color:#00cca4;stop-opacity:1" />
      <stop
         id="stop851"
         offset="1"
         style="stop-color:#005ce5;stop-opacity:1" />
    </linearGradient>
    <linearGradient
       inkscape:collect="always"
       id="linearGradient852">
      <stop
         style="stop-color:#00d4aa;stop-opacity:1"
         offset="0"
         id="stop848" />
      <stop
         style="stop-color:#0094d4;stop-opacity:1"
         offset="1"
         id="stop850" />
    </linearGradient>
    <linearGradient
       y2="15.999999"
       x2="51.5"
       y1="15.999999"
       x1="26.5"
       id="_lgradient_4"
       gradientUnits="userSpaceOnUse"
       gradientTransform="matrix(1.1199999,0,0,1.1199999,-27.239997,-1.9800147)">
      <stop
         id="stop15-3"
         style="stop-color:rgb(255,143,195)"
         stop-opacity="1"
         offset="0%" />
      <stop
         id="stop17-6"
         style="stop-color:rgb(161,161,255)"
         stop-opacity="1"
         offset="100%" />
    </linearGradient>
    <linearGradient
       inkscape:collect="always"
       xlink:href="#linearGradient853"
       id="linearGradient862"
       x1="10"
       y1="499.95001"
       x2="990"
       y2="499.95001"
       gradientUnits="userSpaceOnUse"
       gradientTransform="matrix(0.66480284,0,0,0.62337656,109.80155,194.65097)" />
    <linearGradient
       inkscape:collect="always"
       xlink:href="#linearGradient852"
       id="linearGradient850"
       x1="195.6671"
       y1="502.41946"
       x2="366.40411"
       y2="502.41946"
       gradientUnits="userSpaceOnUse" />
    <linearGradient
       inkscape:collect="always"
       xlink:href="#linearGradient852"
       id="linearGradient858"
       x1="405.85965"
       y1="502.41946"
       x2="524.42133"
       y2="502.41946"
       gradientUnits="userSpaceOnUse" />
    <linearGradient
       inkscape:collect="always"
       xlink:href="#linearGradient852"
       id="linearGradient867"
       x1="567.89496"
       y1="502.41946"
       x2="686.4566"
       y2="502.41946"
       gradientUnits="userSpaceOnUse" />
  </defs>
  <sodipodi:namedview
     pagecolor="#ffffff"
     bordercolor="#666666"
     inkscape:document-rotation="0"
     borderopacity="1"
     objecttolerance="10"
     gridtolerance="10"
     guidetolerance="10"
     inkscape:pageopacity="0"
     inkscape:pageshadow="2"
     inkscape:window-width="1920"
     inkscape:window-height="1015"
     id="namedview19"
     showgrid="false"
     inkscape:zoom="7.5208599"
     inkscape:cx="16.473002"
     inkscape:cy="13.607713"
     inkscape:window-x="0"
     inkscape:window-y="0"
     inkscape:window-maximized="1"
     inkscape:current-layer="applications-other-3"
     showguides="false">
    <inkscape:grid
       type="xygrid"
       id="grid854" />
  </sodipodi:namedview>
  <g
     id="applications-other">
    <g
       transform="translate(0.27357099,0.15566293)"
       id="applications-other-3"
       style="clip-rule:evenodd;fill-rule:evenodd;stroke-linejoin:round;stroke-miterlimit:1.41421">
      <path
         inkscape:connector-curvature="0"
         id="rect817"
         transform="translate(-21.999998,-1.5e-5)"
         d="M 22,0 V 32 H 54 V 0 Z"
         style="fill:#ffffc1;fill-opacity:0;stroke-width:1.00213" />
      <g
         id="applications-other-36"
         transform="matrix(0.03683765,0,0,0.0403945,-0.46048696,-4.4557251)">
        <path
           sodipodi:nodetypes="ssssssssscsssssssc"
           d="M 693.89741,209.23795 H 190.50863 c -40.88536,0 -74.05904,31.10652 -74.05904,69.4442 v 455.25188 c 0,38.33771 33.17368,69.44421 74.05904,69.44421 h 503.38878 c 40.88531,0 74.05909,-31.1065 74.05909,-69.44421 V 278.68215 c 0,-38.33768 -33.17378,-69.4442 -74.05909,-69.4442 z m 50.85466,524.62587 c 0,19.2 -29.25511,49.85828 -49.73099,49.85828 H 190.07499 c -20.47601,0 -50.03034,-28.85121 -50.03034,-48.0511 V 273.45907 c 0,-19.19997 29.55392,-43.12914 50.02986,-43.12914 h 507.30997 c 20.47591,0 47.36759,23.92917 47.36759,43.12914 z"
           id="path4"
           style="opacity:1;fill:url(#linearGradient862);fill-opacity:1;stroke-width:0.643763" />
        <path
           d="M 366.40412,597.29624 H 339.3553 l -19.35982,-51.96941 h -79.01821 l -18.26137,51.96941 h -27.0488 l 72.29037,-189.75357 h 26.22493 z m -54.02896,-73.38876 -28.69645,-78.88094 c -0.89246,-2.54011 -1.85361,-6.93383 -2.95204,-13.24979 h -0.61786 c -0.89247,5.6981 -1.92227,10.16048 -3.08933,13.24979 l -28.42185,78.88094 z"
           id="path6"
           style="fill:url(#linearGradient850);fill-opacity:1.0;stroke-width:0.686517;opacity:0.8" />
        <path
           d="m 430.36834,526.37892 v 70.91732 H 405.85966 V 407.54267 h 53.89166 c 20.5269,0 36.38548,4.94294 47.71302,14.82878 11.32754,9.88589 16.95697,24.02816 16.95697,42.35814 0,18.60469 -6.59057,33.70804 -19.84035,45.24156 -13.2498,11.53353 -29.79487,17.02565 -49.63529,16.33911 h -24.57733 z m 0,-97.27956 v 75.7229 h 22.65508 c 14.96612,0 26.29367,-3.36393 34.0513,-10.09183 7.75769,-6.72783 11.67083,-16.40772 11.67083,-28.97106 0,-24.44002 -14.48553,-36.66001 -43.38794,-36.66001 z"
           id="path8"
           style="fill:url(#linearGradient858);fill-opacity:1.0;stroke-width:0.686517;opacity:0.8" />
        <path
           d="m 592.40365,526.37892 v 70.91732 H 567.89497 V 407.54267 h 53.89166 c 20.5269,0 36.38548,4.94294 47.71302,14.82878 11.32754,9.88589 16.95697,24.02816 16.95697,42.35814 0,18.60469 -6.59057,33.70804 -19.84035,45.24156 -13.2498,11.53353 -29.79487,17.02565 -49.63529,16.33911 h -24.57733 z m 0,-97.27956 v 75.7229 h 22.65508 c 14.96612,0 26.29367,-3.36393 34.0513,-10.09183 7.75769,-6.72783 11.67083,-16.40772 11.67083,-28.97106 0,-24.44002 -14.48553,-36.66001 -43.38794,-36.66001 z"
           id="path10"
           style="fill:url(#linearGradient867);fill-opacity:1.0;stroke-width:0.686517;opacity:0.8" />
      </g>
    </g>
  </g>
</svg>
