<?xml version="1.0" encoding="UTF-8" standalone="no"?>
<svg
   xmlns:dc="http://purl.org/dc/elements/1.1/"
   xmlns:cc="http://creativecommons.org/ns#"
   xmlns:rdf="http://www.w3.org/1999/02/22-rdf-syntax-ns#"
   xmlns:svg="http://www.w3.org/2000/svg"
   xmlns="http://www.w3.org/2000/svg"
   xmlns:xlink="http://www.w3.org/1999/xlink"
   xmlns:sodipodi="http://sodipodi.sourceforge.net/DTD/sodipodi-0.dtd"
   xmlns:inkscape="http://www.inkscape.org/namespaces/inkscape"
   inkscape:version="1.0 (4035a4fb49, 2020-05-01)"
   sodipodi:docname="bookmarks.svg"
   id="svg11"
   version="1.1"
   height="32"
   width="32">
  <metadata
     id="metadata17">
    <rdf:RDF>
      <cc:Work
         rdf:about="">
        <dc:format>image/svg+xml</dc:format>
        <dc:type
           rdf:resource="http://purl.org/dc/dcmitype/StillImage" />
      </cc:Work>
    </rdf:RDF>
  </metadata>
  <defs
     id="defs15">
    <linearGradient
       gradientUnits="userSpaceOnUse"
       gradientTransform="matrix(19.206691,0,0,28.000107,6.0550056,2.2700061)"
       y2="0.5"
       x2="1"
       y1="0.5"
       x1="0"
       id="_lgradient_1">
      <stop
         id="stop9"
         style="stop-color:rgb(242,55,239)"
         stop-opacity="1"
         offset="0%" />
      <stop
         id="stop11"
         style="stop-color:rgb(252,82,82)"
         stop-opacity="1"
         offset="98.69565217391305%" />
    </linearGradient>
    <linearGradient
       gradientUnits="userSpaceOnUse"
       gradientTransform="matrix(19.206691,0,0,28.000107,6.2711919,2.3832384)"
       y2="0.5"
       x2="1"
       y1="0.5"
       x1="0"
       id="_lgradient_1-3">
      <stop
         id="stop9-6"
         style="stop-color:rgb(242,55,239)"
         stop-opacity="1"
         offset="0%" />
      <stop
         id="stop11-7"
         style="stop-color:rgb(252,82,82)"
         stop-opacity="1"
         offset="98.69565217391305%" />
    </linearGradient>
    <linearGradient
       id="_lgradient_1-36"
       x1="0"
       y1="0.5"
       x2="1"
       y2="0.5"
       gradientTransform="matrix(19.206691,0,0,28.000107,6.2711923,2.3832385)"
       gradientUnits="userSpaceOnUse">
      <stop
         offset="0%"
         stop-opacity="1"
         style="stop-color:#ff005d;stop-opacity:1"
         id="stop9-7" />
      <stop
         offset="98.69565217391305%"
         stop-opacity="1"
         style="stop-color:#ff8b26;stop-opacity:0.98823529"
         id="stop11-5" />
    </linearGradient>
    <linearGradient
       gradientUnits="userSpaceOnUse"
       gradientTransform="matrix(19.206691,0,0,28.000107,-48.057013,-19.64997)"
       y2="0.5"
       x2="1"
       y1="0.5"
       x1="0"
       id="_lgradient_1-36-3">
      <stop
         id="stop9-7-6"
         style="stop-color:#ff005d;stop-opacity:1"
         stop-opacity="1"
         offset="0%" />
      <stop
         id="stop11-5-7"
         style="stop-color:#ff8b26;stop-opacity:0.98823529"
         stop-opacity="1"
         offset="98.69565217391305%" />
    </linearGradient>
    <linearGradient
       gradientTransform="matrix(0.02749078,0,0,0.02749078,50.8166,6.100258)"
       inkscape:collect="always"
       xlink:href="#linearGradient837"
       id="linearGradient839"
       x1="-1438.3241"
       y1="327.97546"
       x2="-789.96429"
       y2="332.42038"
       gradientUnits="userSpaceOnUse" />
    <linearGradient
       inkscape:collect="always"
       id="linearGradient837">
      <stop
         style="stop-color:#00d4aa;stop-opacity:1"
         offset="0"
         id="stop833" />
      <stop
         style="stop-color:#005ce5;stop-opacity:1"
         offset="1"
         id="stop835" />
    </linearGradient>
  </defs>
  <sodipodi:namedview
     inkscape:current-layer="bookmarks-5"
     inkscape:window-maximized="1"
     inkscape:window-y="0"
     inkscape:window-x="0"
     inkscape:cy="7.282968"
     inkscape:cx="-4.6115107"
     inkscape:zoom="10.408989"
     showgrid="false"
     id="namedview13"
     inkscape:window-height="1015"
     inkscape:window-width="1920"
     inkscape:pageshadow="2"
     inkscape:pageopacity="0"
     guidetolerance="10"
     gridtolerance="10"
     objecttolerance="10"
     borderopacity="1"
     inkscape:document-rotation="0"
     bordercolor="#666666"
     pagecolor="#ffffff" />
  <g
     id="bookmarks">
    <g
       id="bookmarks-5"
       style="clip-rule:evenodd;fill-rule:evenodd;stroke-linejoin:round;stroke-miterlimit:1.41421"
       transform="translate(0.02534369,0.2700052)">
      <rect
         style="fill:#2020ff;fill-opacity:0"
         id="rect820"
         width="32"
         height="32"
         x="0"
         y="0" />
      <path
         style="fill:url(#linearGradient839);fill-opacity:1;stroke-width:0.0266572"
         inkscape:connector-curvature="0"
         d="m 27.051843,3.7599948 h -9.399524 c -0.642456,0 -1.207608,0.2879041 -1.599468,0.730424 v 0 0 C 15.66631,4.0399013 15.095837,3.7599948 14.453376,3.7599948 H 5.0538356 c -1.1755878,0 -2.0632968,0.8290569 -2.0632968,1.9993328 V 23.641363 c 0,1.175608 0.887709,2.119295 2.0632968,2.119295 0,0 8.0933184,0 8.9570224,0 0.863718,0 1.543494,0.261252 1.543494,1.21293 0,0.567819 0,0.786407 0,0.786407 h 0.498499 0.501165 c 0,0 0,-0.213266 0,-0.786407 0,-0.957013 0.682439,-1.21293 1.543488,-1.21293 0.863703,0 8.957003,0 8.957003,0 1.175618,0 2.063315,-0.943687 2.063315,-2.119295 V 5.7593276 C 29.11574,4.5890517 28.227456,3.7599948 27.051843,3.7599948 Z M 15.551673,25.451432 C 15.25845,24.963592 14.706631,24.758324 14.064181,24.758324 H 5.0538356 c -0.586467,0 -0.9996398,-0.530492 -0.9996398,-1.119618 V 5.7593276 c 0,-0.5864698 0.4131728,-0.9996662 0.9996398,-0.9996662 0,0 8.1626284,0 8.9570224,0 0.799738,0 1.543494,0.7997337 1.543494,1.3862046 V 25.451432 Z M 20.051512,4.7596614 c 1.175606,0 2.687103,0 3.998666,0 V 11.034903 L 22.618671,10.128538 22.050854,9.7286714 21.483035,10.128538 20.051512,11.034903 Z M 28.05151,23.638706 c 0,0.586462 -0.413196,1.119618 -0.999667,1.119618 h -9.010327 c -0.642458,0 -1.194257,0.14397 -1.4875,0.693108 V 6.145866 c 0,-0.5864709 0.74375,-1.3862046 1.543488,-1.3862046 0.13866,0 0.482501,0 0.957014,0 v 8.1866096 l 2.998994,-1.999342 2.999008,1.999342 V 4.7596614 c 1.16227,0 1.999323,0 1.999323,0 0.586471,0 0.999667,0.4185275 0.999667,0.9996662 z"
         id="path1618" />
    </g>
  </g>
</svg>
