<?xml version="1.0" encoding="UTF-8" standalone="no"?>
<svg
   xmlns:dc="http://purl.org/dc/elements/1.1/"
   xmlns:cc="http://creativecommons.org/ns#"
   xmlns:rdf="http://www.w3.org/1999/02/22-rdf-syntax-ns#"
   xmlns:svg="http://www.w3.org/2000/svg"
   xmlns="http://www.w3.org/2000/svg"
   xmlns:sodipodi="http://sodipodi.sourceforge.net/DTD/sodipodi-0.dtd"
   xmlns:inkscape="http://www.inkscape.org/namespaces/inkscape"
   inkscape:version="1.0 (4035a4fb49, 2020-05-01)"
   sodipodi:docname="device.svg"
   id="svg12"
   version="1.1"
   height="32"
   width="32">
  <metadata
     id="metadata18">
    <rdf:RDF>
      <cc:Work
         rdf:about="">
        <dc:format>image/svg+xml</dc:format>
        <dc:type
           rdf:resource="http://purl.org/dc/dcmitype/StillImage" />
      </cc:Work>
    </rdf:RDF>
  </metadata>
  <defs
     id="defs16" />
  <sodipodi:namedview
     inkscape:current-layer="svg12"
     inkscape:window-maximized="1"
     inkscape:window-y="0"
     inkscape:window-x="0"
     inkscape:cy="15.352816"
     inkscape:cx="23.952419"
     inkscape:zoom="13.876971"
     showgrid="false"
     id="namedview14"
     inkscape:window-height="1015"
     inkscape:window-width="1920"
     inkscape:pageshadow="2"
     inkscape:pageopacity="0"
     guidetolerance="10"
     gridtolerance="10"
     objecttolerance="10"
     borderopacity="1"
     bordercolor="#666666"
     pagecolor="#ffffff" />
  <g
     transform="translate(32.000001,10.000001)"
     id="22-22-device-notifier">
    <rect
       id="rect2"
       y="0"
       x="0"
       height="22"
       width="22"
       style="opacity:0.001" />
    <path
       id="path4"
       d="M 6,3 C 4.892,3 4,3.892 4,5 v 12 c 0,1.108 0.892,2 2,2 h 10 c 1.108,0 2,-0.892 2,-2 V 5 C 18,3.892 17.108,3 16,3 Z m 5,3 4,5 H 7 Z m -4,6 h 8 v 2 H 7 Z"
       style="fill:#eff0f1;fill-opacity:1" />
  </g>
  <g
     id="device-notifier">
    <rect
       id="rect7"
       y="0"
       x="0"
       height="32"
       width="32"
       style="opacity:0.001" />
    <path
       id="path9"
       d="M 8 4 C 6.3379999 4 5 5.3379999 5 7 L 5 25 C 5 26.662 6.3379999 28 8 28 L 23 28 C 24.662 28 26 26.662 26 25 L 26 7 C 26 5.3379999 24.662 4 23 4 L 8 4 z M 15.5 9 L 21 16 L 10 16 L 15.5 9 z M 10 18 L 21 18 L 21 21 L 10 21 L 10 18 z"
       style="fill:#eff0f1;fill-opacity:1" />
  </g>
</svg>
