<?xml version="1.0" encoding="UTF-8" standalone="no"?>
<svg
   xmlns:dc="http://purl.org/dc/elements/1.1/"
   xmlns:cc="http://creativecommons.org/ns#"
   xmlns:rdf="http://www.w3.org/1999/02/22-rdf-syntax-ns#"
   xmlns:svg="http://www.w3.org/2000/svg"
   xmlns="http://www.w3.org/2000/svg"
   xmlns:sodipodi="http://sodipodi.sourceforge.net/DTD/sodipodi-0.dtd"
   xmlns:inkscape="http://www.inkscape.org/namespaces/inkscape"
   id="svg7384"
   width="22"
   height="22"
   enable-background="new"
   inkscape:version="1.0 (4035a4fb49, 2020-05-01)"
   sodipodi:docname="disk.svg"
   version="1.1">
  <metadata
     id="metadata32">
    <rdf:RDF>
      <cc:Work
         rdf:about="">
        <dc:format>image/svg+xml</dc:format>
        <dc:type
           rdf:resource="http://purl.org/dc/dcmitype/StillImage" />
        <dc:title />
      </cc:Work>
    </rdf:RDF>
  </metadata>
  <sodipodi:namedview
     id="namedview10"
     bordercolor="#000000"
     borderopacity="1"
     gridtolerance="10"
     guidetolerance="10"
     inkscape:bbox-nodes="true"
     inkscape:current-layer="svg7384"
     inkscape:cx="59.544121"
     inkscape:cy="16.133071"
     inkscape:pageopacity="0"
     inkscape:pageshadow="2"
     inkscape:snap-bbox="true"
     inkscape:snap-bbox-edge-midpoints="true"
     inkscape:window-height="1015"
     inkscape:window-maximized="1"
     inkscape:window-width="1920"
     inkscape:window-x="0"
     inkscape:window-y="0"
     inkscape:zoom="7.4519918"
     objecttolerance="10"
     pagecolor="#ffffff"
     showgrid="false"
     inkscape:lockguides="true"
     inkscape:document-rotation="0">
    <inkscape:grid
       id="grid39"
       type="xygrid" />
  </sodipodi:namedview>
  <defs
     id="defs7386">
    <style
       id="current-color-scheme" />
  </defs>
  <g
     id="disk-quota">
    <path
       id="path15"
       d="m6 2c-1.108 0-2 0.892-2 2v14c0 1.108 0.892 2 2 2h10c1.108 0 2-0.892 2-2v-14c0-1.108-0.892-2-2-2zm0 2h1v2h-1zm2 0h1v2h-1zm2 0h1v2h-1zm2 0h1v2h-1zm2 1h1v1h-1zm-3 2a5 5 0 0 1 5 5 5 5 0 0 1-5 5 5 5 0 0 1-5-5 5 5 0 0 1 5-5zm5 10a1 1 0 0 1 1 1 1 1 0 0 1-1 1 1 1 0 0 1-1-1 1 1 0 0 1 1-1z"
       fill="#dedede"
       inkscape:connector-curvature="0"
       style="fill:#eff0f1;fill-opacity:1" />
    <path
       id="path17"
       d="m 11,7 a 5,5 0 0 0 -5,5 5,5 0 0 0 5,5 5,5 0 0 0 5,-5 h -5 z"
       inkscape:connector-curvature="0"
       style="opacity:1;fill:#00d4aa;fill-opacity:1;fill-rule:evenodd;stroke:#eff0f1;stroke-opacity:1" />
    <path
       id="path19"
       d="m0 0h22v22h-22z"
       opacity="0"
       inkscape:connector-curvature="0" />
    <g
       id="g23"
       fill="#dedede">
      <circle
         id="circle21"
         cx="11"
         cy="12"
         r="2"
         style="fill:#eff0f1;fill-opacity:1" />
    </g>
  </g>
  <g
     id="disk-quota-low"
     transform="translate(32)">
    <path
       id="path53"
       d="m6 2c-1.108 0-2 0.892-2 2v14c0 1.108 0.892 2 2 2h10c1.108 0 2-0.892 2-2v-14c0-1.108-0.892-2-2-2zm0 2h1v2h-1zm2 0h1v2h-1zm2 0h1v2h-1zm2 0h1v2h-1zm2 1h1v1h-1zm-3 2a5 5 0 0 1 5 5 5 5 0 0 1-5 5 5 5 0 0 1-5-5 5 5 0 0 1 5-5zm5 10a1 1 0 0 1 1 1 1 1 0 0 1-1 1 1 1 0 0 1-1-1 1 1 0 0 1 1-1z"
       fill="#dedede"
       inkscape:connector-curvature="0"
       style="fill:#eff0f1;fill-opacity:1" />
    <path
       id="path55"
       d="m 11,7 a 5,5 0 0 0 -5,5 5,5 0 0 0 5,5 5,5 0 0 0 5,-5 h -5 z"
       inkscape:connector-curvature="0"
       style="opacity:1;fill:#0094d4;fill-opacity:1;stroke:#eff0f1;stroke-opacity:1" />
    <path
       id="path57"
       d="m0 0h22v22h-22z"
       opacity="0"
       inkscape:connector-curvature="0" />
    <g
       id="g61"
       fill="#dedede">
      <circle
         id="circle59"
         cx="11"
         cy="12"
         r="2"
         style="fill:#eff0f1;fill-opacity:1" />
    </g>
  </g>
  <g
     id="disk-quota-high"
     transform="translate(59)">
    <path
       id="path65"
       d="m6 2c-1.108 0-2 0.892-2 2v14c0 1.108 0.892 2 2 2h10c1.108 0 2-0.892 2-2v-14c0-1.108-0.892-2-2-2zm0 2h1v2h-1zm2 0h1v2h-1zm2 0h1v2h-1zm2 0h1v2h-1zm2 1h1v1h-1zm-3 2a5 5 0 0 1 5 5 5 5 0 0 1-5 5 5 5 0 0 1-5-5 5 5 0 0 1 5-5zm5 10a1 1 0 0 1 1 1 1 1 0 0 1-1 1 1 1 0 0 1-1-1 1 1 0 0 1 1-1z"
       fill="#dedede"
       inkscape:connector-curvature="0"
       style="fill:#eff0f1;fill-opacity:1" />
    <path
       id="path67"
       d="m 11,7 a 5,5 0 0 0 -5,5 5,5 0 0 0 5,5 5,5 0 0 0 5,-5 h -5 z"
       inkscape:connector-curvature="0"
       style="opacity:1;fill:#ff0066;stroke:#eff0f1;stroke-opacity:1" />
    <path
       id="path69"
       d="m0 0h22v22h-22z"
       opacity="0"
       inkscape:connector-curvature="0" />
    <g
       id="g73"
       fill="#dedede">
      <circle
         id="circle71"
         cx="11"
         cy="12"
         r="2"
         style="fill:#eff0f1;fill-opacity:1" />
    </g>
  </g>
  <g
     id="disk-quota-critical"
     transform="translate(-34)">
    <path
       id="path77"
       d="m126 2c-1.108 0-2 0.892-2 2v14c0 1.108 0.892 2 2 2h10c1.108 0 2-0.892 2-2v-14c0-1.108-0.892-2-2-2zm0 2h1v2h-1zm2 0h1v2h-1zm2 0h1v2h-1zm2 0h1v2h-1zm2 1h1v1h-1zm-3 2a5 5 0 0 1 5 5 5 5 0 0 1-5 5 5 5 0 0 1-5-5 5 5 0 0 1 5-5zm5 10a1 1 0 0 1 1 1 1 1 0 0 1-1 1 1 1 0 0 1-1-1 1 1 0 0 1 1-1z"
       fill="#dedede"
       inkscape:connector-curvature="0"
       style="fill:#eff0f1;fill-opacity:1" />
    <path
       id="path79"
       d="m 131,7 a 5,5 0 0 0 -5,5 5,5 0 0 0 5,5 5,5 0 0 0 5,-5 h -5 z"
       inkscape:connector-curvature="0"
       style="opacity:0.6;fill:#ff0066;stroke:#eff0f1;stroke-opacity:1" />
    <path
       id="path81"
       d="m120 0h22v22h-22z"
       opacity="0"
       inkscape:connector-curvature="0" />
    <g
       id="g85"
       transform="translate(120)"
       fill="#dedede">
      <circle
         id="circle83"
         cx="11"
         cy="12"
         r="2"
         style="fill:#eff0f1;fill-opacity:1" />
    </g>
    <path
       id="path24"
       d="m139 11v5h2v-5zm0 6v2h2v-2z"
       fill="#dc6e2e"
       inkscape:connector-curvature="0"
       style="fill:#ff0066" />
  </g>
</svg>
