<?xml version="1.0" encoding="UTF-8" standalone="no"?>
<svg
   xmlns:osb="http://www.openswatchbook.org/uri/2009/osb"
   xmlns:dc="http://purl.org/dc/elements/1.1/"
   xmlns:cc="http://creativecommons.org/ns#"
   xmlns:rdf="http://www.w3.org/1999/02/22-rdf-syntax-ns#"
   xmlns:svg="http://www.w3.org/2000/svg"
   xmlns="http://www.w3.org/2000/svg"
   xmlns:sodipodi="http://sodipodi.sourceforge.net/DTD/sodipodi-0.dtd"
   xmlns:inkscape="http://www.inkscape.org/namespaces/inkscape"
   version="1.1"
   width="22"
   height="22"
   id="svg2"
   inkscape:version="1.0 (4035a4fb49, 2020-05-01)"
   sodipodi:docname="drive.svg">
  <sodipodi:namedview
     pagecolor="#ffffff"
     bordercolor="#000000"
     borderopacity="1"
     objecttolerance="10"
     gridtolerance="10"
     guidetolerance="10"
     inkscape:pageopacity="0.06666667"
     inkscape:pageshadow="2"
     inkscape:window-width="1920"
     inkscape:window-height="1015"
     id="namedview12"
     showgrid="false"
     inkscape:zoom="11.313708"
     inkscape:cx="13.046616"
     inkscape:cy="18.93232"
     inkscape:window-x="0"
     inkscape:window-y="0"
     inkscape:window-maximized="1"
     inkscape:current-layer="svg2"
     inkscape:snap-bbox="true"
     inkscape:bbox-nodes="true"
     inkscape:document-rotation="0"
     showguides="false">
    <inkscape:grid
       type="xygrid"
       id="grid2988"
       empspacing="5"
       visible="true"
       enabled="true"
       snapvisiblegridlinesonly="true"
       color="#0000ff"
       opacity="0.03921569"
       empcolor="#0000ff"
       empopacity="0.07843137" />
  </sodipodi:namedview>
  <defs
     id="defs4">
    <style
       type="text/css"
       id="current-color-scheme">
</style>
    <linearGradient
       osb:paint="solid"
       id="linearGradient5606">
      <stop
         style="stop-color:#000000;stop-opacity:1;"
         offset="0"
         id="stop5608" />
    </linearGradient>
  </defs>
  <metadata
     id="metadata7">
    <rdf:RDF>
      <cc:Work
         rdf:about="">
        <dc:format>image/svg+xml</dc:format>
        <dc:type
           rdf:resource="http://purl.org/dc/dcmitype/StillImage" />
        <dc:title />
      </cc:Work>
    </rdf:RDF>
  </metadata>
  <rect
     ry="0"
     y="-19.384777"
     x="-20.426331"
     height="16"
     width="16"
     id="rect3018"
     style="opacity:0;fill:#ffffff;fill-opacity:1;stroke:none" />
  <g
     id="drive-harddisk"
     inkscape:label="#g4151">
    <rect
       ry="1.375"
       y="0"
       x="0"
       height="22"
       width="22"
       id="rect3004"
       style="opacity:0;fill:#ffffff;fill-opacity:1;stroke:none" />
    <path
       id="rect4"
       d="m 5.2726545,2.1134703 c -0.62325,0 -1.125,0.50175 -1.125,1.125 V 18.98847 c 0,0.62324 0.50175,1.125 1.125,1.125 H 16.522654 c 0.62324,0 1.125,-0.50176 1.125,-1.125 V 3.2384703 c 0,-0.62325 -0.50176,-1.125 -1.125,-1.125 z m 5.6469705,3.353027 c 1.59638,0.015746 3.148606,0.874284 3.948486,2.384034 0.963,1.815749 0.555967,3.9957337 -0.852533,5.3547337 l -1.942382,-2.32032 c 0.225,-0.2655 0.362546,-0.605354 0.362546,-0.9799737 -10e-7,-0.836998 -0.679117,-1.518307 -1.516117,-1.518307 -0.837,0 -1.5161135,0.681309 -1.5161135,1.518307 0,0.8369997 0.6791135,1.5161167 1.5161135,1.5161167 0.0282,-10e-7 0.05211,-0.01427 0.07911,-0.01534 l 0.83714,2.95312 c -1.9203635,0.4106 -3.9478305,-0.469317 -4.9130805,-2.289577 -1.164376,-2.1971197 -0.349226,-4.9176537 1.8479,-6.0820297 0.687371,-0.363374 1.4233035,-0.528626 2.1489235,-0.520752 z m 2.74218,12.3881807 z"
       style="fill:#eff0f1;fill-opacity:1;stroke:none;stroke-width:1.125"
       inkscape:connector-curvature="0"
       sodipodi:nodetypes="sssssssssscccssssccccssccccc" />
  </g>
</svg>
