<?xml version="1.0" encoding="UTF-8" standalone="no"?>
<svg
   xmlns:dc="http://purl.org/dc/elements/1.1/"
   xmlns:cc="http://creativecommons.org/ns#"
   xmlns:rdf="http://www.w3.org/1999/02/22-rdf-syntax-ns#"
   xmlns:svg="http://www.w3.org/2000/svg"
   xmlns="http://www.w3.org/2000/svg"
   xmlns:sodipodi="http://sodipodi.sourceforge.net/DTD/sodipodi-0.dtd"
   xmlns:inkscape="http://www.inkscape.org/namespaces/inkscape"
   sodipodi:docname="input.svg"
   inkscape:version="1.0 (4035a4fb49, 2020-05-01)"
   version="1.1"
   width="24"
   height="24"
   id="svg3738">
  <defs
     id="defs8" />
  <sodipodi:namedview
     inkscape:document-rotation="0"
     inkscape:guide-bbox="true"
     showguides="true"
     inkscape:snap-to-guides="true"
     inkscape:snap-grids="true"
     inkscape:current-layer="svg3738"
     inkscape:window-maximized="1"
     inkscape:window-y="0"
     inkscape:window-x="0"
     inkscape:cy="23.458742"
     inkscape:cx="30.182204"
     inkscape:zoom="5.3636365"
     showgrid="false"
     id="namedview6"
     inkscape:window-height="1013"
     inkscape:window-width="1920"
     inkscape:pageshadow="2"
     inkscape:pageopacity="0.58823529"
     guidetolerance="10"
     gridtolerance="10"
     objecttolerance="10"
     borderopacity="1"
     bordercolor="#000000"
     pagecolor="#ffffff">
    <inkscape:grid
       snapvisiblegridlinesonly="true"
       enabled="true"
       visible="true"
       empspacing="5"
       id="grid2985"
       type="xygrid" />
  </sodipodi:namedview>
  <metadata
     id="metadata13">
    <rdf:RDF>
      <cc:Work
         rdf:about="">
        <dc:format>image/svg+xml</dc:format>
        <dc:type
           rdf:resource="http://purl.org/dc/dcmitype/StillImage" />
        <dc:title />
      </cc:Work>
    </rdf:RDF>
  </metadata>
  <g
     transform="translate(30,-30)"
     id="input-keyboard-battery">
    <rect
       style="opacity:0.01;fill:#000000;fill-opacity:0.00392157;stroke:none"
       id="rect2991-6-6"
       width="24"
       height="24"
       x="30"
       y="6"
       transform="rotate(90)" />
    <path
       d="m -11,47 c 0,-0.554 -0.446,-1 -1,-1 h -13 c -0.554,0 -1,0.446 -1,1 v 5 c 0,0.554 0.446,1 1,1 h 13 c 0.554,0 1,-0.446 1,-1 z m -3,0 v 1 h -1 v -1 z m 0,2 v 1 h -1 v -1 z m -1,2 v 1 h -7 v -1 z m -1,-4 v 1 h -1 v -1 z m 0,2 v 1 h -1 v -1 z m -2,-2 v 1 h -1 v -1 z m 0,2 v 1 h -1 v -1 z m -2,-2 v 1 h -1 v -1 z m 0,2 v 1 h -1 v -1 z m -2,-2 v 1 h -1 v -1 z m 0,2 v 1 h -1 v -1 z"
       style="opacity:0;fill-rule:evenodd"
       id="rect2397-1-8-0"
       inkscape:connector-curvature="0" />
    <path
       d="m -11,46 c 0,-0.554 -0.446,-1 -1,-1 h -13 c -0.554,0 -1,0.446 -1,1 v 5 c 0,0.554 0.446,1 1,1 h 13 c 0.554,0 1,-0.446 1,-1 z m -3,0 v 1 h -1 v -1 z m 0,2 v 1 h -1 v -1 z m -1,2 v 1 h -7 v -1 z m -1,-4 v 1 h -1 v -1 z m 0,2 v 1 h -1 v -1 z m -2,-2 v 1 h -1 v -1 z m 0,2 v 1 h -1 v -1 z m -2,-2 v 1 h -1 v -1 z m 0,2 v 1 h -1 v -1 z m -2,-2 v 1 h -1 v -1 z m 0,2 v 1 h -1 v -1 z"
       style="fill:#eff0f1;fill-opacity:1;fill-rule:evenodd"
       id="rect2397-7-4"
       inkscape:connector-curvature="0" />
    <path
       inkscape:connector-curvature="0"
       id="path3172-1-0-0"
       d="m -10,42 -9,-8 v 5 l -7,-3 10,8 v -3.75 z"
       style="opacity:0;fill-rule:evenodd" />
    <path
       inkscape:connector-curvature="0"
       id="path3172-3-2"
       d="m -13.6,41.9 -5.85,-5.2 v 3.25 L -24,38 l 6.5,5.2 v -2.4375 z"
       style="fill:#ff0066;fill-opacity:1;fill-rule:nonzero;stroke-width:0.65" />
  </g>
  <g
     transform="translate(30,-30)"
     id="input-keyboard-brightness">
    <rect
       style="opacity:0.01;fill:#000000;fill-opacity:0.00392157;stroke:none"
       id="rect2991-6"
       width="24"
       height="24"
       x="30"
       y="-24"
       transform="rotate(90)" />
    <path
       d="m 19,47 c 0,-0.554 -0.446,-1 -1,-1 H 5 c -0.554,0 -1,0.446 -1,1 v 5 c 0,0.554 0.446,1 1,1 h 13 c 0.554,0 1,-0.446 1,-1 z m -3,0 v 1 h -1 v -1 z m 0,2 v 1 h -1 v -1 z m -1,2 v 1 H 8 v -1 z m -1,-4 v 1 h -1 v -1 z m 0,2 v 1 h -1 v -1 z m -2,-2 v 1 h -1 v -1 z m 0,2 v 1 h -1 v -1 z m -2,-2 v 1 H 9 v -1 z m 0,2 v 1 H 9 V 49 Z M 8,47 v 1 H 7 v -1 z m 0,2 v 1 H 7 v -1 z"
       style="opacity:0;fill-rule:evenodd"
       id="rect2397-1-8"
       inkscape:connector-curvature="0" />
    <path
       d="m 19,46 c 0,-0.554 -0.446,-1 -1,-1 H 5 c -0.554,0 -1,0.446 -1,1 v 5 c 0,0.554 0.446,1 1,1 h 13 c 0.554,0 1,-0.446 1,-1 z m -3,0 v 1 h -1 v -1 z m 0,2 v 1 h -1 v -1 z m -1,2 v 1 H 8 v -1 z m -1,-4 v 1 h -1 v -1 z m 0,2 v 1 h -1 v -1 z m -2,-2 v 1 h -1 v -1 z m 0,2 v 1 h -1 v -1 z m -2,-2 v 1 H 9 v -1 z m 0,2 v 1 H 9 V 48 Z M 8,46 v 1 H 7 v -1 z m 0,2 v 1 H 7 v -1 z"
       style="fill:#eff0f1;fill-opacity:1;fill-rule:evenodd"
       id="rect2397-7"
       inkscape:connector-curvature="0" />
    <path
       inkscape:connector-curvature="0"
       style="opacity:0;fill:#000000;fill-opacity:1"
       d="m 12.0003,32 -0.75,2.25 h 1.5 z m -4.24215,1.75785 1.05465,2.1093 1.05465,-1.05465 z m 8.484,0 -2.109,1.05465 1.0545,1.05465 z M 12,35 c -1.656826,0 -3,1.343176 -3,3 0,1.656824 1.343174,3 3,3 1.656824,0 3,-1.343176 3,-3 0,-1.656824 -1.34325,-3 -3,-3 z m 0,1.125 c 1.035524,0 1.875,0.839474 1.875,1.875 0,1.035524 -0.839476,1.875 -1.875,1.875 -1.035524,0 -1.875,-0.839476 -1.875,-1.875 0,-1.035526 0.839476,-1.875 1.875,-1.875 z M 8.25,37.25 6,38 8.25,38.75 Z m 7.5,0 v 1.5 L 18,38 Z M 8.81235,40.133 7.7577,42.242 9.867,41.1875 Z m 6.375,0 -1.05465,1.05465 2.109376,1.05465 -1.054502,-2.109 z m -3.9375,1.617 0.75,2.25 0.75,-2.25 z"
       id="path4-7-7" />
    <path
       inkscape:connector-curvature="0"
       style="fill:#ffff00;fill-opacity:1"
       d="m 12.0003,31 -0.75,2.25 h 1.5 z m -4.24215,1.75785 1.05465,2.1093 1.05465,-1.05465 z m 8.484,0 -2.109,1.05465 1.0545,1.05465 z M 12,34 c -1.656826,0 -3,1.343176 -3,3 0,1.656824 1.343174,3 3,3 1.656824,0 3,-1.343176 3,-3 0,-1.656824 -1.34325,-3 -3,-3 z m 0,1.125 c 1.035524,0 1.875,0.839474 1.875,1.875 0,1.035524 -0.839476,1.875 -1.875,1.875 -1.035524,0 -1.875,-0.839476 -1.875,-1.875 0,-1.035526 0.839476,-1.875 1.875,-1.875 z M 8.25,36.25 6,37 8.25,37.75 Z m 7.5,0 v 1.5 L 18,37 Z M 8.81235,39.133 7.7577,41.242 9.867,40.1875 Z m 6.375,0 -1.05465,1.05465 2.109376,1.05465 -1.054502,-2.109 z m -3.9375,1.617 0.75,2.25 0.75,-2.25 z"
       id="path4-7" />
  </g>
  <g
     id="input-mouse-battery">
    <rect
       style="opacity:0.01;fill:#000000;fill-opacity:0.00392157;stroke:none"
       id="rect2991-6-4"
       width="24"
       height="24"
       x="0"
       y="6"
       transform="rotate(90)" />
    <g
       id="layer1"
       transform="translate(-36,8.0000002)">
      <path
         inkscape:connector-curvature="0"
         id="path3324-2"
         style="opacity:0;fill-rule:evenodd"
         d="M 10,6 C 9.446,6 9,6.446 9,7 v 2 c 0,1.108 1.338,2 3,2 h 1 c 1.662,0 3,-0.892 3,-2 V 7 C 16,6.446 15.554,6 15,6 Z" />
      <path
         inkscape:connector-curvature="0"
         id="rect2406-4"
         style="opacity:0;fill:none;stroke:#000000;stroke-linecap:round;stroke-opacity:0"
         d="m 11.5,-2.5 h 2 c 2.216,0 4,1.338 4,3 v 9 c 0,1.662 -1.784,3 -4,3 h -2 c -2.216,0 -4,-1.338 -4,-3 v -9 c 0,-1.662 1.784,-3 4,-3 z m 1.0419,1e-6 v 4" />
      <g
         id="g3195"
         style="opacity:0.3;fill:none;stroke:#dfdbd2"
         transform="translate(0,-8)">
        <path
           inkscape:connector-curvature="0"
           id="path3193"
           style="fill:none;stroke:#dfdbd2;stroke-width:2;stroke-linecap:round"
           d="M 12.5,5.3333 V 8.6666" />
        <rect
           id="rect3236"
           style="fill:none;stroke:#ebebeb;stroke-width:0.5;stroke-linecap:round;stroke-opacity:1"
           transform="rotate(-90)"
           rx="2.3"
           ry="3.3001001"
           height="8.5"
           width="13.5"
           y="11.75"
           x="-18.75" />
      </g>
      <path
         inkscape:connector-curvature="0"
         id="rect2406"
         style="fill:none;stroke:#eff0f1;stroke-linecap:round;stroke-opacity:1"
         d="m 15,-3.5 h 2 c 2.216,0 4,1.338 4,3 v 9 c 0,1.662 -1.784,3 -4,3 h -2 c -2.216,0 -4,-1.338 -4,-3 v -9 c 0,-1.662 1.784,-3 4,-3 z m 1.0419,1e-6 v 4" />
      <path
         inkscape:connector-curvature="0"
         id="rect3728"
         style="fill:#0094d4;fill-opacity:1;fill-rule:nonzero"
         d="M 14.063,-1.7535 C 13.1353,-1.4128 12.5,-0.7559 12.5,0 v 8 c 0,1.108 1.338,2 3,2 h 1 c 1.662,0 3,-0.892 3,-2 V 0 c 0,-0.75537 -0.634,-1.4119 -1.561,-1.7527 -0.412,-0.159 -0.439,0.1222 -0.439,0.2214 v 2.5312 c 0,0.554 -0.446,1 -1,1 h -1 c -0.554,0 -1,-0.446 -1,-1 v -2.5312 c 0,-0.19923 -0.20268,-0.3112 -0.43728,-0.22222 z" />
    </g>
    <path
       inkscape:connector-curvature="0"
       id="path3172-3-2-2-2"
       d="m -9,5 -8,9 h 5 l -3,7 8,-10 h -3.75 z"
       style="opacity:0;fill:#000000;fill-opacity:1;fill-rule:evenodd" />
    <path
       inkscape:connector-curvature="0"
       id="path3172-3-2-2"
       d="m -8.95,7.8 -4.25,4.78125 h 2.65625 L -12.1375,16.3 l 4.25,-5.3125 h -1.992188 z"
       style="fill:#00d4aa;fill-opacity:1;fill-rule:nonzero;stroke-width:0.53125" />
  </g>
</svg>
