<?xml version="1.0" encoding="UTF-8" standalone="no"?>
<svg
   xmlns:dc="http://purl.org/dc/elements/1.1/"
   xmlns:cc="http://creativecommons.org/ns#"
   xmlns:rdf="http://www.w3.org/1999/02/22-rdf-syntax-ns#"
   xmlns:svg="http://www.w3.org/2000/svg"
   xmlns="http://www.w3.org/2000/svg"
   xmlns:sodipodi="http://sodipodi.sourceforge.net/DTD/sodipodi-0.dtd"
   xmlns:inkscape="http://www.inkscape.org/namespaces/inkscape"
   sodipodi:docname="kaffeine.svg"
   inkscape:version="1.0 (4035a4fb49, 2020-05-01)"
   version="1.1"
   id="svg3066"
   height="24.000002"
   width="24.000002">
  <defs
     id="defs3068" />
  <sodipodi:namedview
     showguides="false"
     inkscape:document-rotation="0"
     inkscape:window-maximized="1"
     inkscape:window-y="0"
     inkscape:window-x="0"
     inkscape:window-height="1015"
     inkscape:window-width="1920"
     fit-margin-bottom="0"
     fit-margin-right="0"
     fit-margin-left="0"
     fit-margin-top="0"
     showgrid="false"
     inkscape:current-layer="kaffeine"
     inkscape:document-units="px"
     inkscape:cy="11.380447"
     inkscape:cx="31.725525"
     inkscape:zoom="7.919596"
     inkscape:pageshadow="2"
     inkscape:pageopacity="0.0"
     borderopacity="1.0"
     bordercolor="#666666"
     pagecolor="#ffffff"
     id="base">
    <inkscape:grid
       snapvisiblegridlinesonly="true"
       enabled="true"
       visible="true"
       empspacing="5"
       id="grid2987"
       type="xygrid" />
  </sodipodi:namedview>
  <metadata
     id="metadata3071">
    <rdf:RDF>
      <cc:Work
         rdf:about="">
        <dc:format>image/svg+xml</dc:format>
        <dc:type
           rdf:resource="http://purl.org/dc/dcmitype/StillImage" />
        <dc:title />
      </cc:Work>
    </rdf:RDF>
  </metadata>
  <g
     transform="translate(-49.749795,-995.22726)"
     id="layer1"
     inkscape:groupmode="layer"
     inkscape:label="Capa 1">
    <g
       id="kaffeine">
      <g
         style="display:inline;stroke:none"
         id="kopete"
         transform="matrix(0.67929374,0,0,0.67929374,49.573018,1007.381)">
        <rect
           y="-17.891731"
           x="0.260236"
           height="35.330814"
           width="35.330814"
           id="rect4184"
           style="opacity:0.66799998999999999;fill:#ffffff;fill-opacity:0;stroke:none" />
      </g>
      <g
         id="text2988"
         style="font-size:40.42158127px;font-style:normal;font-variant:normal;font-weight:normal;font-stretch:normal;line-height:125%;letter-spacing:0px;word-spacing:0px;fill:#f2f2f2;fill-opacity:1;stroke:none;font-family:Entypo;-inkscape-font-specification:Entypo"
         transform="matrix(1.0113363,0,0,0.9895704,-0.05659928,0)">
        <path
           style="fill:#eff0f1;fill-opacity:1"
           sodipodi:nodetypes="cccccccccccccsscsccccccccccccscsscccccccc"
           inkscape:connector-curvature="0"
           id="path2993"
           d="m 68.032764,1012.7903 0,2.021 2.999495,-10e-5 0,2.0211 -2.999495,10e-5 0,2.0211 2.999495,-1e-4 0,2.0211 -2.999495,10e-5 0,2.0211 2.999495,-2e-4 0,1.2127 c -2.2e-5,0.2156 -0.08087,0.4042 -0.24253,0.5659 -0.13476,0.1617 -0.323393,0.2425 -0.565902,0.2425 l -18.189711,0 c -0.215585,0 -0.404218,-0.081 -0.565902,-0.2425 -0.161689,-0.1617 -0.242532,-0.3503 -0.24253,-0.5659 l 0,-1.2127 2.953094,2e-4 0,-2.0211 -2.953094,-10e-5 0,-2.0211 2.953094,1e-4 0,-2.0211 -2.953094,-10e-5 0,-2.0211 2.953094,10e-5 0,-2.021 -2.953094,-2e-4 0,-1.2126 c -2e-6,-0.2156 0.08084,-0.4042 0.24253,-0.5659 0.161684,-0.1617 0.350317,-0.2425 0.565902,-0.2425 l 18.189711,0 c 0.242509,0 0.431142,0.081 0.565902,0.2425 0.161665,0.1617 0.242508,0.3503 0.24253,0.5659 l 0,1.2126 -1.020354,2e-4 m -5.937423,5.0527 -5.937423,-3.0317 0,6.0633 5.937423,-3.0316" />
      </g>
      <path
         inkscape:connector-curvature="0"
         id="path2992"
         d="m 52.028812,1002.2273 0,10"
         style="fill:none;stroke:#00d4aa;stroke-width:0.55;stroke-linecap:square;stroke-linejoin:miter;stroke-miterlimit:4;stroke-opacity:1;stroke-dasharray:none" />
      <path
         inkscape:connector-curvature="0"
         id="path2992-4"
         d="m 71.50426,1002.2273 0,10"
         style="fill:none;stroke:#00d4aa;stroke-width:0.55;stroke-linecap:square;stroke-linejoin:miter;stroke-miterlimit:4;stroke-opacity:1;stroke-dasharray:none" />
    </g>
  </g>
</svg>
