<?xml version="1.0" encoding="UTF-8" standalone="no"?>
<svg
   xmlns:dc="http://purl.org/dc/elements/1.1/"
   xmlns:cc="http://creativecommons.org/ns#"
   xmlns:rdf="http://www.w3.org/1999/02/22-rdf-syntax-ns#"
   xmlns:svg="http://www.w3.org/2000/svg"
   xmlns="http://www.w3.org/2000/svg"
   xmlns:sodipodi="http://sodipodi.sourceforge.net/DTD/sodipodi-0.dtd"
   xmlns:inkscape="http://www.inkscape.org/namespaces/inkscape"
   sodipodi:docname="kmail.svg"
   inkscape:version="1.0 (4035a4fb49, 2020-05-01)"
   version="1.0"
   width="24"
   height="24"
   id="svg3229">
  <defs
     id="defs8" />
  <sodipodi:namedview
     inkscape:document-rotation="0"
     inkscape:current-layer="svg3229"
     inkscape:window-maximized="1"
     inkscape:window-y="0"
     inkscape:window-x="0"
     inkscape:cy="20.454533"
     inkscape:cx="27.439469"
     inkscape:zoom="15.170655"
     showgrid="false"
     id="namedview6"
     inkscape:window-height="1015"
     inkscape:window-width="1920"
     inkscape:pageshadow="2"
     inkscape:pageopacity="0.58823529"
     guidetolerance="10"
     gridtolerance="10"
     objecttolerance="10"
     borderopacity="1"
     bordercolor="#000000"
     pagecolor="#ffffff">
    <inkscape:grid
       snapvisiblegridlinesonly="true"
       enabled="true"
       visible="true"
       empspacing="5"
       id="grid2990"
       type="xygrid" />
  </sodipodi:namedview>
  <metadata
     id="metadata9">
    <rdf:RDF>
      <cc:Work
         rdf:about="">
        <dc:format>image/svg+xml</dc:format>
        <dc:type
           rdf:resource="http://purl.org/dc/dcmitype/StillImage" />
        <dc:title></dc:title>
      </cc:Work>
    </rdf:RDF>
  </metadata>
  <g
     id="mail-unread-new">
    <rect
       style="opacity:0.01000001;fill:#000000;fill-opacity:0.00392157;stroke:none"
       id="rect2991-3"
       width="24"
       height="24"
       x="28"
       y="0" />
    <path
       inkscape:connector-curvature="0"
       style="opacity:0;color:#000000;fill:#000000;fill-opacity:0;fill-rule:nonzero;stroke:none;stroke-width:1.5;marker:none;visibility:visible;display:inline;overflow:visible;enable-background:accumulate"
       d="m 33,7 c -0.554,0 -1,0.446 -1,1 l 0,10 c 0,0.554 0.446,1 1,1 l 14,0 c 0.554,0 1,-0.446 1,-1 L 48,8 C 48,7.446 47.554,7 47,7 L 33,7 z m 0,1 7,7 7,-7 0,1 -7,7 -7,-7 0,-1 z M 36.5,13.5 37,14 33.03125,18 33,16.9375 36.5,13.5 z m 7,0 L 47,16.9375 46.96875,18 43,14 43.5,13.5 z"
       id="rect3088-4" />
    <path
       inkscape:connector-curvature="0"
       style="color:#000000;fill:#0094d4;fill-opacity:1;fill-rule:nonzero;stroke:none;stroke-width:1.5;marker:none;visibility:visible;display:inline;overflow:visible;enable-background:accumulate"
       d="m 33,6 c -0.554,0 -1,0.446 -1,1 l 0,10 c 0,0.554 0.446,1 1,1 l 14,0 c 0.554,0 1,-0.446 1,-1 L 48,7 C 48,6.446 47.554,6 47,6 L 33,6 z m 0,1 7,7 7,-7 0,1 -7,7 -7,-7 0,-1 z M 36.5,12.5 37,13 33.03125,17 33,15.9375 36.5,12.5 z m 7,0 L 47,15.9375 46.96875,17 43,13 43.5,12.5 z"
       id="rect3088" />
  </g>
  <g
     id="kmail">
    <rect
       style="opacity:0.01000001;fill:#000000;fill-opacity:0.00392157;stroke:none"
       id="rect2991"
       width="24"
       height="24"
       x="0"
       y="0" />
    <path
       inkscape:connector-curvature="0"
       style="opacity:0;color:#000000;fill:#000000;fill-opacity:0;fill-rule:nonzero;stroke:none;stroke-width:1.5;marker:none;visibility:visible;display:inline;overflow:visible;enable-background:accumulate"
       d="M 5,7 C 4.446,7 4,7.446 4,8 l 0,10 c 0,0.554 0.446,1 1,1 l 14,0 c 0.554,0 1,-0.446 1,-1 L 20,8 C 20,7.446 19.554,7 19,7 L 5,7 z m 0,1 7,7 7,-7 0,1 -7,7 L 5,9 5,8 z M 8.5,13.5 9,14 5.03125,18 5,16.9375 8.5,13.5 z m 7,0 L 19,16.9375 18.96875,18 15,14 15.5,13.5 z"
       id="rect3088-4-0" />
    <path
       inkscape:connector-curvature="0"
       style="color:#000000;fill:#ebebeb;fill-opacity:1;fill-rule:nonzero;stroke:none;stroke-width:1.5;marker:none;visibility:visible;display:inline;overflow:visible;enable-background:accumulate"
       d="M 5,6 C 4.446,6 4,6.446 4,7 l 0,10 c 0,0.554 0.446,1 1,1 l 14,0 c 0.554,0 1,-0.446 1,-1 L 20,7 C 20,6.446 19.554,6 19,6 L 5,6 z m 0,1 7,7 7,-7 0,1 -7,7 L 5,8 5,7 z M 8.5,12.5 9,13 5.03125,17 5,15.9375 8.5,12.5 z m 7,0 L 19,15.9375 18.96875,17 15,13 15.5,12.5 z"
       id="rect3088-6" />
  </g>
</svg>
