<?xml version="1.0" encoding="UTF-8" standalone="no"?>
<svg
   xmlns:dc="http://purl.org/dc/elements/1.1/"
   xmlns:cc="http://creativecommons.org/ns#"
   xmlns:rdf="http://www.w3.org/1999/02/22-rdf-syntax-ns#"
   xmlns:svg="http://www.w3.org/2000/svg"
   xmlns="http://www.w3.org/2000/svg"
   xmlns:sodipodi="http://sodipodi.sourceforge.net/DTD/sodipodi-0.dtd"
   xmlns:inkscape="http://www.inkscape.org/namespaces/inkscape"
   inkscape:version="1.0 (4035a4fb49, 2020-05-01)"
   height="22.000017"
   width="30.367834"
   sodipodi:docname="kteatime.svg"
   xml:space="preserve"
   viewBox="0 0 30.367834 22.000017"
   y="0px"
   x="0px"
   id="Capa_1"
   version="1.1"><metadata
   id="metadata38"><rdf:RDF><cc:Work
       rdf:about=""><dc:format>image/svg+xml</dc:format><dc:type
         rdf:resource="http://purl.org/dc/dcmitype/StillImage" /><dc:title /></cc:Work></rdf:RDF></metadata><defs
   id="defs36" /><sodipodi:namedview
   inkscape:current-layer="Capa_1"
   inkscape:window-maximized="1"
   inkscape:window-y="0"
   inkscape:window-x="0"
   inkscape:cy="25.047733"
   inkscape:cx="49.889278"
   inkscape:zoom="10.388012"
   showgrid="false"
   id="namedview34"
   inkscape:window-height="1015"
   inkscape:window-width="1920"
   inkscape:pageshadow="2"
   inkscape:pageopacity="0"
   guidetolerance="10"
   gridtolerance="10"
   objecttolerance="10"
   borderopacity="1"
   bordercolor="#666666"
   pagecolor="#ffffff"
   inkscape:document-rotation="0" />
<path
   style="fill:#eff0f1;fill-opacity:1;stroke-width:0.0558915"
   sodipodi:nodetypes="scssssccsssssccsssscsscssccscscssc"
   d="M 22.316726,5.6867887 H 21.259873 C 21.020999,4.7845888 20.19788,4.117525 19.221625,4.117525 H 7.7888093 c -1.1625976,0 -2.1083923,0.9457943 -2.1083923,2.1083923 v 3.9751667 c 0,3.006454 1.8410075,5.590765 4.454826,6.685458 H 7.4431767 c -1.0134794,4.9e-5 -1.8813631,-0.04224 -1.8801247,0.69491 0.00109,0.677043 0.9691576,0.485016 1.9826358,0.486908 l 11.9356742,0.02216 c 1.013478,0.0025 2.061595,0.212775 2.048696,-0.581339 -0.0104,-0.635824 -0.949265,-0.622635 -1.962748,-0.622635 h -2.693575 c 1.577926,-0.660576 2.874671,-1.863417 3.654577,-3.374998 h 1.788414 c 1.41763,0 2.571007,-1.153381 2.571007,-2.571012 V 8.25779 c 0,-1.4176299 -1.153377,-2.5710056 -2.571007,-2.5710047 z m -8.81151,8.3837733 c 0,0 -3.7114693,-2.010361 -3.7114693,-4.5708599 0,-1.1427563 0.9263443,-2.0691006 2.0691023,-2.0691006 0.66924,0 1.264153,0.3177986 1.642367,0.8106496 0.37822,-0.492851 0.973126,-0.8106496 1.642372,-0.8106496 1.142753,0 2.069105,0.9263443 2.069105,2.0691006 0,2.5837479 -3.711477,4.5708599 -3.711477,4.5708599 z m 10.259978,-2.89098 c -0.06624,0.919338 -1.373446,1.168033 -1.558263,1.161174 l -0.940464,-0.03487 c 0.0525,-0.350774 0.06365,-1.739582 0.06365,-2.104721 l -0.01174,-3.3989384 1.04263,0.033164 c 1.061159,0.033763 1.382688,0.917832 1.383845,1.1027739 z"
   id="kteatime" />
<g
   transform="translate(0.75389757,-25.384)"
   id="g3">
</g>
<g
   transform="translate(0.75389757,-25.384)"
   id="g5">
</g>
<g
   transform="translate(0.75389757,-25.384)"
   id="g7">
</g>
<g
   transform="translate(0.75389757,-25.384)"
   id="g9">
</g>
<g
   transform="translate(0.75389757,-25.384)"
   id="g11">
</g>
<g
   transform="translate(0.75389757,-25.384)"
   id="g13">
</g>
<g
   transform="translate(0.75389757,-25.384)"
   id="g15">
</g>
<g
   transform="translate(0.75389757,-25.384)"
   id="g17">
</g>
<g
   transform="translate(0.75389757,-25.384)"
   id="g19">
</g>
<g
   transform="translate(0.75389757,-25.384)"
   id="g21">
</g>
<g
   transform="translate(0.75389757,-25.384)"
   id="g23">
</g>
<g
   transform="translate(0.75389757,-25.384)"
   id="g25">
</g>
<g
   transform="translate(0.75389757,-25.384)"
   id="g27">
</g>
<g
   transform="translate(0.75389757,-25.384)"
   id="g29">
</g>
<g
   transform="translate(0.75389757,-25.384)"
   id="g31">
</g>
</svg>
