<?xml version="1.0" encoding="UTF-8" standalone="no"?>
<svg
   xmlns:dc="http://purl.org/dc/elements/1.1/"
   xmlns:cc="http://creativecommons.org/ns#"
   xmlns:rdf="http://www.w3.org/1999/02/22-rdf-syntax-ns#"
   xmlns:svg="http://www.w3.org/2000/svg"
   xmlns="http://www.w3.org/2000/svg"
   xmlns:xlink="http://www.w3.org/1999/xlink"
   xmlns:sodipodi="http://sodipodi.sourceforge.net/DTD/sodipodi-0.dtd"
   xmlns:inkscape="http://www.inkscape.org/namespaces/inkscape"
   width="30mm"
   height="30mm"
   viewBox="0 0 30 30"
   version="1.1"
   id="svg8"
   inkscape:version="1.0 (4035a4fb49, 2020-05-01)"
   sodipodi:docname="start.svg">
  <defs
     id="defs2">
    <linearGradient
       id="linearGradient907"
       inkscape:collect="always">
      <stop
         id="stop903"
         offset="0"
         style="stop-color:#00d4aa;stop-opacity:1" />
      <stop
         id="stop905"
         offset="1"
         style="stop-color:#005ce5;stop-opacity:1" />
    </linearGradient>
    <linearGradient
       id="linearGradient903"
       inkscape:collect="always">
      <stop
         id="stop897"
         offset="0"
         style="stop-color:#0055d4;stop-opacity:1" />
      <stop
         id="stop899"
         offset="1"
         style="stop-color:#00bcd4;stop-opacity:1" />
    </linearGradient>
    <linearGradient
       inkscape:collect="always"
       id="linearGradient847">
      <stop
         style="stop-color:#008080;stop-opacity:1"
         offset="0"
         id="stop843" />
      <stop
         style="stop-color:#00ccff;stop-opacity:1"
         offset="1"
         id="stop845" />
    </linearGradient>
    <linearGradient
       inkscape:collect="always"
       xlink:href="#linearGradient903"
       id="linearGradient849"
       x1="20.477444"
       y1="59.384544"
       x2="988.54999"
       y2="942.39111"
       gradientUnits="userSpaceOnUse" />
    <linearGradient
       inkscape:collect="always"
       xlink:href="#linearGradient847"
       id="linearGradient854"
       gradientUnits="userSpaceOnUse"
       x1="10"
       y1="499.95001"
       x2="990"
       y2="499.95001" />
    <linearGradient
       inkscape:collect="always"
       xlink:href="#linearGradient847"
       id="linearGradient862"
       gradientUnits="userSpaceOnUse"
       x1="10"
       y1="499.95001"
       x2="990"
       y2="499.95001" />
    <linearGradient
       inkscape:collect="always"
       xlink:href="#linearGradient847"
       id="linearGradient864"
       gradientUnits="userSpaceOnUse"
       x1="10"
       y1="499.95001"
       x2="990"
       y2="499.95001" />
    <linearGradient
       gradientTransform="matrix(2.1785159,0,0,2.1785159,-417.32778,-462.76461)"
       inkscape:collect="always"
       xlink:href="#linearGradient907"
       id="linearGradient866"
       gradientUnits="userSpaceOnUse"
       x1="427.94214"
       y1="463.24713"
       x2="696.7818"
       y2="741.33832" />
    <linearGradient
       inkscape:collect="always"
       xlink:href="#linearGradient847"
       id="linearGradient868"
       gradientUnits="userSpaceOnUse"
       x1="10"
       y1="499.95001"
       x2="990"
       y2="499.95001" />
    <linearGradient
       inkscape:collect="always"
       xlink:href="#linearGradient847"
       id="linearGradient870"
       gradientUnits="userSpaceOnUse"
       x1="10"
       y1="499.95001"
       x2="990"
       y2="499.95001" />
    <linearGradient
       inkscape:collect="always"
       xlink:href="#linearGradient847"
       id="linearGradient872"
       gradientUnits="userSpaceOnUse"
       x1="10"
       y1="499.95001"
       x2="990"
       y2="499.95001" />
    <linearGradient
       inkscape:collect="always"
       xlink:href="#linearGradient847"
       id="linearGradient874"
       gradientUnits="userSpaceOnUse"
       x1="10"
       y1="499.95001"
       x2="990"
       y2="499.95001" />
    <linearGradient
       inkscape:collect="always"
       xlink:href="#linearGradient847"
       id="linearGradient876"
       gradientUnits="userSpaceOnUse"
       x1="10"
       y1="499.95001"
       x2="990"
       y2="499.95001" />
    <linearGradient
       inkscape:collect="always"
       xlink:href="#linearGradient847"
       id="linearGradient878"
       gradientUnits="userSpaceOnUse"
       x1="10"
       y1="499.95001"
       x2="990"
       y2="499.95001" />
    <linearGradient
       inkscape:collect="always"
       xlink:href="#linearGradient847"
       id="linearGradient880"
       gradientUnits="userSpaceOnUse"
       x1="10"
       y1="499.95001"
       x2="990"
       y2="499.95001" />
    <linearGradient
       inkscape:collect="always"
       xlink:href="#linearGradient847"
       id="linearGradient882"
       gradientUnits="userSpaceOnUse"
       x1="10"
       y1="499.95001"
       x2="990"
       y2="499.95001" />
    <linearGradient
       inkscape:collect="always"
       xlink:href="#linearGradient847"
       id="linearGradient884"
       gradientUnits="userSpaceOnUse"
       x1="10"
       y1="499.95001"
       x2="990"
       y2="499.95001" />
    <linearGradient
       inkscape:collect="always"
       xlink:href="#linearGradient847"
       id="linearGradient886"
       gradientUnits="userSpaceOnUse"
       x1="10"
       y1="499.95001"
       x2="990"
       y2="499.95001" />
    <linearGradient
       inkscape:collect="always"
       xlink:href="#linearGradient847"
       id="linearGradient888"
       gradientUnits="userSpaceOnUse"
       x1="10"
       y1="499.95001"
       x2="990"
       y2="499.95001" />
    <linearGradient
       inkscape:collect="always"
       xlink:href="#linearGradient847"
       id="linearGradient890"
       gradientUnits="userSpaceOnUse"
       x1="10"
       y1="499.95001"
       x2="990"
       y2="499.95001" />
    <linearGradient
       inkscape:collect="always"
       xlink:href="#linearGradient847"
       id="linearGradient892"
       gradientUnits="userSpaceOnUse"
       x1="10"
       y1="499.95001"
       x2="990"
       y2="499.95001" />
    <linearGradient
       inkscape:collect="always"
       xlink:href="#linearGradient847"
       id="linearGradient894"
       gradientUnits="userSpaceOnUse"
       x1="10"
       y1="499.95001"
       x2="990"
       y2="499.95001" />
    <linearGradient
       inkscape:collect="always"
       xlink:href="#linearGradient847"
       id="linearGradient896"
       gradientUnits="userSpaceOnUse"
       x1="10"
       y1="499.95001"
       x2="990"
       y2="499.95001" />
    <linearGradient
       inkscape:collect="always"
       xlink:href="#linearGradient847"
       id="linearGradient898"
       gradientUnits="userSpaceOnUse"
       x1="10"
       y1="499.95001"
       x2="990"
       y2="499.95001" />
    <linearGradient
       inkscape:collect="always"
       xlink:href="#linearGradient847"
       id="linearGradient900"
       gradientUnits="userSpaceOnUse"
       x1="10"
       y1="499.95001"
       x2="990"
       y2="499.95001" />
    <linearGradient
       inkscape:collect="always"
       xlink:href="#linearGradient847"
       id="linearGradient902"
       gradientUnits="userSpaceOnUse"
       x1="10"
       y1="499.95001"
       x2="990"
       y2="499.95001" />
  </defs>
  <sodipodi:namedview
     inkscape:lockguides="true"
     id="base"
     pagecolor="#ffffff"
     bordercolor="#666666"
     borderopacity="1.0"
     inkscape:pageopacity="0.0"
     inkscape:pageshadow="2"
     inkscape:zoom="4.2406513"
     inkscape:cx="91.433936"
     inkscape:cy="52.064232"
     inkscape:document-units="mm"
     inkscape:current-layer="start-here-kde"
     showgrid="false"
     inkscape:window-width="1920"
     inkscape:window-height="1015"
     inkscape:window-x="0"
     inkscape:window-y="0"
     inkscape:window-maximized="1"
     inkscape:document-rotation="0" />
  <metadata
     id="metadata5">
    <rdf:RDF>
      <cc:Work
         rdf:about="">
        <dc:format>image/svg+xml</dc:format>
        <dc:type
           rdf:resource="http://purl.org/dc/dcmitype/StillImage" />
        <dc:title />
      </cc:Work>
    </rdf:RDF>
  </metadata>
  <g
     inkscape:label="Layer 1"
     inkscape:groupmode="layer"
     id="start-here-kde"
     transform="translate(-148.52146,-341.676)">
    <g
       id="g1063"
       transform="matrix(0.02983682,0,0,0.02983682,143.6912,335.34243)"
       style="fill:url(#linearGradient849);fill-opacity:1">
      <g
         id="g1031"
         style="fill:url(#linearGradient872);fill-opacity:1">
        <g
           id="g1029"
           style="fill:url(#linearGradient870);fill-opacity:1">
          <g
             id="g1013"
             style="fill:url(#linearGradient854);fill-opacity:1" />
          <g
             id="g1021"
             style="fill:url(#linearGradient862);fill-opacity:1" />
          <g
             id="g1027"
             style="fill:url(#linearGradient868);fill-opacity:1">
            <path
               id="path1023"
               d="m 398,714.3 c -0.6,0 -1,0.4 -1.2,0.9 1,0.5 1.9,1 2.9,1.6 -0.7,-0.8 -1.3,-1.6 -1.7,-2.5 z"
               inkscape:connector-curvature="0"
               style="fill:url(#linearGradient864);fill-opacity:1" />
            <path
               id="path1025"
               d="m 1052.9525,919.06788 c 31.1532,-59.90918 48.7992,-127.87889 48.7992,-200.20561 0,-136.5929 -62.9598,-258.37189 -161.42844,-338.32345 7.6245,6.97133 14.8138,13.94256 20.6959,19.17095 30.2807,27.88499 56.85904,60.34485 77.99024,95.63676 -0.653,0 -0.8707,0.21794 -1.307,0.43578 14.597,21.1315 25.9241,44.65949 35.074,69.05898 -5.2282,-7.18911 -22.8743,-18.29953 -14.3782,-1.30721 4.1393,8.4963 14.3782,12.85331 17.4279,21.13166 2.1785,-0.21782 0.8721,-3.26773 2.6148,-3.26773 2.1792,4.13917 -0.653,9.14973 4.1386,12.19963 6.101,20.04238 10.6761,40.73828 13.9424,61.8698 -18.2984,5.01056 -33.1122,23.52797 -44.6582,1.08927 -6.1009,-11.98178 -9.15,-20.26014 -17.4291,-31.15279 -6.0992,-8.27837 -14.8136,-14.59604 -17.2095,-25.27072 -4.1398,-17.42808 -32.67804,-27.885 -33.54974,-47.05602 -0.2175,-2.832 -7.1887,-16.55671 -6.7535,-16.99233 1.7429,-1.52505 1.0893,-8.71413 1.3076,-10.67476 0.4353,-7.18909 1.9603,-12.85329 0.2176,-20.04237 -15.4675,4.13917 -28.5385,-2.1784 -44.4417,-3.70344 0.6536,-0.21791 1.3071,-0.65352 1.3071,-1.30711 -4.57481,-4.13917 -7.8426,-6.97126 -13.28897,-10.02116 6.09988,-6.09981 -0.21785,-3.48566 -1.08923,-7.40701 -1.08926,-5.44629 13.2889,-3.04991 15.6853,-4.13918 -0.2178,-0.65345 -1.9606,-1.52486 -1.9606,-2.39639 -5.66417,-1.08911 -4.79274,5.0107 -11.11042,0.65368 -4.79282,-3.48574 -5.44631,-1.30721 -10.02126,-0.65368 0.65368,1.30713 0.87151,2.39639 0.87151,3.70358 0,0 -7.84275,-5.6642 -6.97134,-1.30719 4.57496,4.3571 7.18909,8.93204 12.6354,13.28899 -3.26776,1.74286 -6.09981,-0.21776 -8.93184,-2.39632 0.21787,1.30704 1.74275,8.06051 2.83203,8.71397 -6.31774,-0.65346 -10.02117,-3.70336 -7.407,-9.14973 -4.79263,-0.6535 -15.24955,-10.8925 -16.33881,-15.9032 -1.52492,-9.14972 -13.94244,-10.23899 -14.81395,-15.90305 -2.17849,-0.21793 -27.44923,-17.64601 -26.79572,-12.63547 1.08922,8.06045 14.37818,19.17103 22.65654,20.04239 1.30711,6.75333 13.94257,5.01061 14.16041,12.41756 -11.98189,-3.26777 -7.40692,-4.13919 -6.09981,4.35693 -0.21786,-1.08927 -6.97132,9.36764 -7.84274,4.13918 12.63544,1.30711 -27.44926,-30.2813 -25.92434,-26.79572 -8.93185,-9.14979 -10.45687,-12.63531 -22.22078,-6.53549 -5.66423,2.83207 -24.83506,-7.18908 -19.82451,5.44621 -0.21791,0.87152 -26.5779,12.19979 -15.24962,17.21033 -3.48567,4.79269 -8.93195,8.93187 -13.72467,10.89253 -5.88198,-2.17848 -16.55671,5.88212 -20.04239,0.65365 -4.13918,-6.75349 -6.97122,-4.13917 -13.9424,-4.57494 -7.1891,-0.65351 -1.08928,-24.39931 -1.08928,-27.44923 0,-4.35703 -3.70343,-10.45691 5.44628,-9.8034 7.84261,0.65352 15.46744,2.3964 23.52799,3.26783 8.93188,-1.3072 12.41755,1.96063 11.76402,-10.23899 -0.2179,0 -0.2179,0.21783 -0.43575,0.21783 5.44629,-8.93202 -18.95311,-11.32828 -18.95311,-16.12111 0,-3.26776 14.16041,-0.21785 15.68528,-0.65346 0,-1.52503 -0.87136,-2.83207 -1.08925,-4.57493 11.32825,1.08921 12.85328,-3.26783 22.43869,-5.22847 8.06059,-1.74277 6.97131,-10.23906 16.55671,-9.58538 2.83214,0.21775 13.07119,0.87142 10.67476,-3.48566 -5.66406,-9.8034 -5.66406,-9.8034 4.79271,-13.94259 0.43574,3.05007 1.96078,4.13919 2.6143,5.22847 -0.43576,0 -0.8714,1.74285 -1.30719,3.92141 1.96069,0.21776 3.26781,1.08928 2.83206,3.48551 -0.4356,-1.52488 -2.17839,-0.87136 -3.4855,-1.52488 -0.43584,2.39631 -0.87145,4.13918 -0.43584,3.04997 5.22847,0.65345 11.54618,0.21786 16.77465,0.87139 -0.87137,6.31772 19.17086,-0.87139 23.96372,1.08928 -0.21791,0.43557 -0.43582,0.87134 -0.43582,1.3071 1.9607,0.21775 4.13919,0.21775 5.88211,0.21775 -1.52502,-10.8925 18.08161,-15.03169 18.08161,-12.19969 0,-2.6141 -8.71412,-5.88191 -6.09983,-6.97118 7.40695,-3.92129 16.12097,1.96063 24.18157,-1.08927 -3.05002,-3.26782 -40.95618,-2.17856 -35.292,-9.36764 -3.26772,-0.87136 -2.83214,-3.0499 -4.357,-5.22846 1.3071,0.21791 16.99233,-5.44631 16.77455,-6.09982 -3.0499,-7.40699 -15.46745,-1.08927 -16.77455,1.08928 1.08928,3.48567 -16.12097,1.96063 -15.46746,7.1891 1.08928,5.66419 7.84259,4.13917 9.14972,9.14972 0.21793,0.87142 -16.77462,7.84276 -6.09981,9.80338 0.21783,4.13918 -12.8533,7.40701 -15.68537,7.18909 -2.39638,-0.43576 -7.62472,-10.23899 -8.93185,-12.41748 -3.26777,-4.79285 -4.7928,-8.49627 -10.23903,-5.0106 -1.96063,1.08927 -18.08174,5.22845 -18.7352,-0.65366 -0.2179,-1.5249 2.832,0.21791 2.39636,-2.39626 -2.17852,-0.21784 -2.17852,-0.21784 -4.13919,0 0.65356,-0.87151 1.30701,-1.52502 2.39629,-1.96078 -11.32829,-7.84261 10.23901,-12.19963 15.46745,-11.54603 -1.74272,-0.43576 -2.39624,-0.6536 -3.70339,-0.87151 3.26777,-0.21777 28.53848,-10.45676 29.4099,-13.07107 -3.48559,0.21792 -4.79269,0.65368 -8.06053,0.65368 0.65363,-0.21791 2.17856,-0.65368 2.61431,-0.65368 -0.65366,0 -2.17856,-0.43559 -2.17856,-0.43559 0.43567,-1.30711 11.76396,-0.43577 11.98179,-0.43577 -1.08927,-0.21789 -1.08927,-0.21789 -2.39637,-0.21789 1.74286,-0.65345 3.70358,-1.08928 5.66421,-0.65345 -0.87139,-0.43583 -0.65351,-0.43583 -1.30718,-0.65369 5.22843,-1.52487 11.7641,0 17.21038,-0.87135 -4.13917,-0.65352 9.80325,-3.26783 8.49612,0.87135 5.66422,0.65369 11.54612,2.39639 17.42809,5.44631 -67.53385,-42.91663 -147.48549,-67.96963 -233.31896,-67.96963 -240.50813,0 -435.4852,195.19497 -435.4852,435.4852 0,158.81385 84.74426,297.36761 211.53379,373.39831 -2.61416,-3.7046 -0.65343,-7.8437 -2.61416,-12.1999 -2.83214,-5.8829 -7.40692,-6.7533 -7.40692,-14.8137 0,-16.1209 -1.08928,-26.1428 -7.62485,-42.2639 -6.97125,-9.15 -5.88197,-29.41021 -7.8426,-40.73791 -3.92135,-10.8927 -5.44638,-22.0033 -10.02116,-32.6781 -5.0107,-11.54617 -19.17104,-19.60661 -31.58857,-21.13166 -16.12091,-2.83204 -18.51736,-16.55669 -28.3206,-27.23134 -8.27836,-8.71416 -16.55673,-18.73524 -23.0923,-28.53863 -3.26782,-4.35696 -9.80341,-4.79272 -11.76403,-12.41757 -1.74279,-6.97123 5.01054,-9.80322 5.01054,-16.12096 -9.58533,-5.22846 -6.75333,-6.53556 -6.53542,-16.99234 0.21785,-8.93202 12.41754,-18.51751 12.19963,-27.66723 -2.39638,-0.87142 -3.26782,-2.17854 -2.17854,-4.13916 -1.96064,-8.71406 -13.071,-23.09225 -1.96064,-27.66716 -2.17854,-11.98182 12.41755,-20.04228 21.34943,-23.96367 1.96063,-0.87142 4.13917,-6.97124 6.75347,-3.48559 1.30713,1.30704 1.08921,2.83208 -0.65366,4.13918 0,2.83208 -1.74279,16.77449 4.57495,16.55673 2.83199,-0.43573 -7.84261,-15.03182 6.75331,-15.9032 -1.30702,-2.61415 -4.13918,-1.30712 -4.79269,-4.13917 5.22847,-0.21791 11.54621,4.35709 14.59611,7.84259 2.39637,2.6143 11.76401,1.30715 14.81392,2.3964 4.35694,1.74279 13.07106,-4.13918 18.95296,-4.13918 -0.65343,0.65363 -2.17848,0.87143 -3.0499,0.65363 1.96069,9.80329 23.74581,12.19965 29.8457,21.13156 4.79278,6.97124 25.27085,8.93187 32.89554,8.71409 8.93204,-0.65363 24.18156,21.13153 20.04238,26.79573 -6.31772,8.49613 2.83209,18.95305 10.89268,18.08161 8.06044,-0.87134 0.65351,-15.24952 16.33881,-8.93182 5.88196,2.61414 8.06052,2.17846 9.80324,9.14974 7.1891,-0.87139 16.77464,-3.48566 25.27084,-1.30717 8.49629,2.39644 13.72457,7.84274 22.65661,9.80336 19.38872,4.13918 0.87137,39.64896 -3.70357,48.36307 -3.26767,6.53558 6.53557,28.53846 5.22845,38.124 -4.13918,16.77454 -6.75331,22.65655 -21.13152,32.02416 -3.92133,2.3964 -11.32832,10.239 -10.45689,15.6853 1.3071,4.5749 2.83197,9.3675 4.357,13.9423 -2.61427,3.2681 -3.92139,6.9713 -3.92139,10.8927 v 0 c -1.30704,10.4567 -5.44618,19.82481 -7.40688,30.71761 -1.3071,7.1886 -23.52803,10.4571 -24.39941,8.2782 4.13916,11.1103 20.04241,6.3178 12.6354,23.0918 -2.61415,5.8819 -11.76402,7.1898 -16.99232,8.4969 -6.53558,1.5253 0.21776,8.9309 0,12.418 3.0499,6.9708 -7.40703,3.4855 -11.54621,4.5733 -7.8427,2.1793 11.76397,11.112 10.45693,8.4971 1.96062,4.1384 -4.57496,1.9609 -6.09997,2.3957 1.74293,4.1402 8.06059,14.1608 0.21786,17.6463 -11.76391,7.1899 8.93201,11.3292 10.89265,16.993 50.32369,20.2602 105.22233,31.5886 162.73503,31.5886 164.69583,0 308.04237,-91.4987 381.89361,-226.34847 2.1792,-4.35694 3.9219,-6.75332 6.1002,-8.71395 z M 888.25657,384.24232 c 0,1.30704 -1.08926,3.26783 -3.0499,3.04997 -1.30718,0 -1.96065,-1.08927 -1.96065,-1.52508 1.30713,0 2.17849,-0.43561 3.26777,-0.43561 -3.70356,-2.83215 0.65352,-1.74287 1.74278,-1.08928 z m -17.64598,2.39631 c -0.87136,1.08927 -1.96064,2.17855 -2.83206,3.48567 -2.17848,-1.96064 1.9607,-3.70342 2.83206,-3.48567 z m -27.01363,7.84275 c -3.26775,0.21786 -1.96065,6.53542 -6.97119,3.04993 0.6535,-0.65369 1.08928,-0.65369 1.30711,0 1.08928,0 2.17856,-0.65369 2.17856,-1.3072 -7.62484,-1.52487 -0.43575,-8.27837 3.48552,-1.74273 z m -35.5097,-54.24511 c -0.65366,0.21784 -0.87152,0.21784 -1.08928,0.21784 1.08928,0.43577 1.96063,0.43577 2.61416,0.65352 -1.96062,-0.43559 4.3571,0.43576 5.22845,0.65369 -4.13918,-3.70361 4.35707,-1.30721 4.57494,-1.30721 0,0.43577 -0.21787,0.43577 -0.21787,0.87137 1.96067,-0.4356 4.57481,0 7.18912,0.43584 -0.43583,-0.21793 -0.87144,-0.43584 -1.08928,-0.87144 1.52488,0.21775 3.26774,0 4.79263,0 -0.43561,0 -5.01054,-0.21784 -5.2284,-0.21784 -0.87142,0 -4.79267,0.21784 -5.4462,-1.08927 1.30704,0 2.39626,0 3.48552,0.21783 v -0.21783 c 0.65366,0 1.08926,0 1.74294,0 -0.21793,-0.21794 -0.43575,-0.21794 -0.65368,-0.43578 7.1891,0 18.51737,-1.30702 25.27084,1.74289 -2.39637,0.4356 -13.72465,2.17855 -20.04238,1.30702 1.08927,0.43576 1.96064,0.65368 2.83207,1.08928 -0.43564,0.21783 -0.65352,0 -1.30704,0 3.26767,0.43576 7.6247,1.08928 11.11044,2.61432 -3.26783,0.21784 -4.35711,1.08926 -7.40702,1.30711 -0.43575,-0.21785 -0.43575,-0.65366 0,-0.87153 -1.30712,0 -3.92125,-0.21774 -5.22845,-0.43558 0,-0.65369 1.3072,-0.43583 1.52503,-1.08928 -0.8715,0 -1.52503,-0.65353 -2.17856,-1.30721 -4.79277,1.30721 -18.73518,6.31774 -19.17097,1.08928 2.39642,0 4.35704,0.21793 6.75343,0.21793 -0.87135,-0.43576 -8.06044,0 -8.06044,-1.30721 0,0 4.13918,-0.65343 6.31757,-0.87135 -2.83205,0 -7.84259,0.65352 -9.14972,-0.43576 0.21785,-0.21775 0.43576,-0.21775 0.6536,-0.21775 -1.52503,-0.21783 -2.83215,-0.65367 -2.39638,-1.08927 -1.08928,-0.21784 -1.96063,-0.65361 -3.0499,-0.87136 2.61413,-0.21792 5.01053,-0.43575 7.62483,0.21775 z m -7.1891,1.30712 v 0 c 0,0.21793 0,0.21793 0,0 0,0.21793 0,0 0,0 z m -0.21792,0 c 1.08928,0.43576 2.17856,0.65351 2.83209,1.52504 -1.52504,0 -3.9213,-1.08928 -2.83209,-1.52504 z M 977.14016,512.1212 c 0.2176,2.61416 -8.714,7.84261 -9.8033,2.39639 2.3963,-0.87151 6.753,-2.17855 9.8033,-2.39639 z m -43.5705,-1.52503 c -3.04989,1.30709 -9.58547,-0.87144 -12.1996,-2.39631 4.13917,-0.21785 8.9318,1.08927 12.1996,2.39631 z M 871.2641,487.06818 c -0.4356,1.52505 -0.65351,7.84277 -0.65351,7.84277 -2.61415,-0.21785 -13.94242,-6.53557 -14.16035,-8.71413 2.17856,-0.65351 12.41754,0.21792 14.81386,0.87136 z m -34.63833,-30.06353 c 0,0.87142 0.43573,1.52509 1.08928,1.52509 -0.43578,1.96064 -0.65355,5.66407 -1.08928,6.53542 -1.96062,-0.65351 -2.83206,-5.2283 -4.13917,-6.75333 1.30711,0 2.832,-0.43576 4.13917,-1.30718 z m -1.96062,14.81401 c -0.21793,-1.30719 -1.96072,-2.39646 -2.39648,-3.92135 14.37819,-2.17846 4.13918,19.17087 2.39648,3.92135 z m -28.32083,1.08928 c 0.21792,1.96062 -4.13918,-0.87145 -4.13918,-1.08928 2.17854,-1.7428 3.48573,-1.30719 4.13918,1.08928 z m -38.124,-95.85471 c -1.30712,0.87144 -2.61416,1.52489 -4.13918,2.17855 1.7428,3.26767 5.01062,4.13918 10.23902,1.30704 0.65365,2.83214 -5.2284,5.22839 -5.6641,6.75347 6.75337,1.74273 16.77458,8.49622 17.21026,15.46746 1.08928,-0.2179 1.30717,-0.65367 1.96064,-0.65367 3.92133,-1.74279 3.92133,2.39639 -0.21785,7.18908 1.08928,0.21786 2.39639,0.43578 3.70357,0.87152 0,1.30703 -29.84572,3.92135 -33.11344,3.70344 1.96065,-3.48568 11.76389,-5.01053 11.76389,-6.97119 -1.30707,1.30712 -10.67463,-0.65367 -10.67463,-1.30718 0,-2.17856 3.48552,-2.832 3.48552,-6.97119 2.83214,0.21786 7.62486,0.21786 7.62486,-3.2678 -2.61417,0 -4.79272,-0.43577 -2.83203,-3.04991 -1.08926,-0.21793 -8.27835,0.65352 -8.06051,-1.08927 0,-3.92129 4.5748,-1.96064 -1.08928,-4.7927 -0.87141,0.65351 -0.43573,1.08927 0,1.30702 -0.6536,0 -0.87141,0 -1.30708,0 0,-4.13917 -0.65354,-3.26782 -0.65354,-6.31772 -2.39637,-0.4356 -3.70358,-1.08912 -3.70358,-1.96064 0.43576,0 4.57493,1.30712 4.57493,0.65359 -3.26772,-1.08921 11.32827,-8.71411 10.89253,-3.0499 z m -7.6247,18.29953 c 0,-0.65352 0.21778,-1.08928 1.30702,-1.30719 0.21787,0 0.6536,0.21791 0.87138,0.21791 0,0.2179 -0.21778,0.65351 -0.21778,1.30711 -0.43573,-0.21783 -0.87147,-0.21783 -1.96062,-0.21783 z m -6.09997,-18.95312 c 0,1.30712 -1.30703,2.17848 -3.26767,1.96062 -3.48564,0 2.83209,-1.96062 3.26767,-1.96062 z m -17.86377,17.86384 c 0.21794,-1.96063 5.66409,-1.30711 6.97127,-1.96063 -3.26783,-3.48567 5.44628,-3.48567 6.97118,-3.04991 10.02129,0.65345 2.61429,5.22844 2.61429,6.31765 -0.21782,8.06054 -5.66419,10.67467 -14.59602,10.02116 -9.36763,-0.65351 0.43561,-6.53559 1.08925,-8.93188 -0.87141,-0.87136 -1.74289,-1.74288 -3.04997,-2.39639 z M 493.50953,350.69312 c 1.7428,0 3.70359,0 5.22844,0 -1.08927,0 -2.17853,0 -3.26778,-0.65344 1.30716,-0.65368 2.83221,-0.43583 4.35706,-0.43583 -0.2179,-0.21785 -0.65351,-0.21785 -0.65351,-0.43561 1.96071,-0.43577 4.13919,-0.43577 6.09984,-0.6536 -0.87137,-0.21776 -2.61426,-0.21776 -1.74288,-0.65352 3.48565,0 10.67474,3.04991 12.8533,1.52488 l -0.21792,-0.21776 c 2.61429,-0.21784 2.17854,0.21776 0.43582,1.30703 3.48551,-1.96063 4.35702,2.39638 10.02109,-1.52487 0.43574,-0.21793 -2.61416,-1.3072 -3.70343,-1.3072 2.61415,0 3.26783,-0.21784 1.7428,-0.65344 -2.83207,0 -5.01053,-0.43581 -5.44637,-1.08926 1.08927,-0.21794 2.17853,-0.43583 3.26781,-0.65369 -1.30711,0.21786 -3.0499,0.21786 -4.57478,0.21786 2.39624,-0.87138 4.79271,-0.87138 7.62469,-1.08921 -2.61415,-0.43567 -5.22845,0.87135 -7.8426,0.43576 1.52488,-0.21793 2.3963,-0.43576 3.70341,-0.65353 -2.39638,0.4356 -4.57477,0.4356 -6.97116,0.4356 12.63537,-4.57477 48.36298,-7.84259 60.99846,-3.26781 -6.53566,1.74295 10.67468,-0.87137 10.02107,0.65367 -0.65346,1.30703 -10.89251,1.30703 -11.76389,1.30703 0.43561,0.21783 3.48552,-0.21775 5.22831,-0.21775 -9.14971,2.61413 -18.95295,2.39624 -28.10276,4.57477 0.87146,0 1.52491,0 2.39632,0 -0.65352,0.65368 -1.30704,0.65368 -3.26766,0.65368 0.87134,0.21776 1.7428,0.21776 1.7428,0.87136 -4.13919,0.87144 -6.31775,1.74279 -10.67486,2.17855 -0.87134,1.96062 -4.57477,1.08927 -6.31765,2.61414 1.08923,-0.2179 4.13912,-0.43575 3.7035,0 -6.97132,6.75334 -23.09228,0.87138 -33.33129,1.7428 1.96064,-0.65352 4.13919,-1.08928 6.31775,-1.08928 -5.66423,-2.61414 7.18909,-1.08927 8.9318,-1.30704 -2.83199,-2.17847 -7.62469,-1.74286 -10.45684,-1.08928 0,0.21793 0.43576,0.4357 0.21783,0.65352 -2.39637,0 -10.02106,-0.65352 -12.19962,0.21794 0.43577,0 0.87134,0 1.30711,0 -0.43577,0 -1.08927,0.21782 -1.74285,0.21782 0.21781,0 0.43574,-0.21782 0.43574,-0.21782 -0.65351,0 -1.30719,-0.21794 -1.74279,-0.87146 3.0499,-0.65358 6.09982,-0.87134 9.14974,-0.87134 -1.30715,-0.21785 -5.88206,-0.43576 -8.71414,-0.43576 0.21791,0 0.65368,0 0.87145,-0.21791 -3.4856,1.08925 -5.44624,1.08925 -3.92136,0 z m 37.90615,14.37825 c -2.61414,1.30711 -8.49612,1.08921 -11.32827,1.30711 -0.21776,0 -4.35694,-0.87135 -3.26766,-1.74279 3.26766,-2.6143 11.11043,-0.43576 14.59593,0.43568 z m -48.5809,-13.72458 c 1.30713,0 2.83214,0 3.48566,-0.21785 -0.43559,0.21785 -0.87136,0.65343 -1.3071,0.87137 1.74285,0 -3.70343,0.21782 -2.17856,-0.65352 z m 5.01069,4.13917 c 0.87142,-0.21783 1.08928,0 0,0 v 0 c -2.39639,0 -10.89268,0.65353 -5.66422,-0.21783 -2.61415,-2.17854 8.27836,-2.83207 5.66422,0.21783 z m 3.92135,0.4356 c -0.87145,0.65352 -1.96072,0.87144 -3.04993,0.87144 -0.65364,0 -5.88211,-0.21792 -5.88211,-0.21792 3.05007,-0.65352 6.09997,-0.65352 8.93204,-0.65352 z m 5.22844,3.26784 c -1.30719,0.2179 -2.83205,0.2179 -4.13918,0.2179 -1.08926,1.0892 2.61411,0.4356 3.48553,0.87138 -2.39632,0.6535 30.06354,-2.17856 30.49929,-0.21793 -0.65351,0 -1.30719,0.21793 -1.96064,0.65352 0.65345,0 1.30713,0 1.30713,0 -8.06061,5.0107 -23.31023,-2.39625 -30.49932,1.52503 -1.96063,0 -15.24953,0 -8.06044,-1.30712 -0.65366,-2.17856 -1.74278,-2.61416 -3.92134,-1.30703 -1.74285,0 -3.48566,-0.43575 -5.22846,-1.08927 1.30705,-1.08928 18.08161,-1.08928 18.51743,0.65352 z m -15.68535,2.17855 c 3.2678,1.52486 -9.14971,1.30711 -9.14971,1.30711 0.65343,-0.43576 2.17846,-0.65367 2.39624,-0.65367 2.17853,-1.30712 4.35705,-1.52489 6.75347,-0.65344 z m -19.60664,-6.7535 c 0.43576,0 0.87134,-0.21776 1.30713,-0.4356 -1.30713,0 -1.52507,-0.21792 -0.87137,-0.43582 2.83206,-0.43562 11.76386,-1.30697 13.94242,0.87142 -0.43576,0 -1.08928,0.21786 -1.3071,0.43576 0.87134,0.87135 -2.39633,1.30711 -6.09991,1.30711 -0.87136,0.21776 -1.96064,0.21776 -3.26774,0.43568 0.6536,0 1.52503,-0.21792 2.39638,-0.43568 -3.04991,0 -6.31775,-0.43576 -6.97117,-1.08919 1.52489,0.21783 3.26775,-0.21792 4.57479,-1.08928 -2.61415,0.4356 -3.48558,0.65346 -3.70343,0.4356 z m -6.75349,2.39639 c 2.61431,-0.21784 1.30712,0.87137 3.05008,0.87137 -0.65371,0.21791 -1.52505,0.65367 -2.17856,0.65367 -1.30712,0.21774 -1.74287,-0.87153 -0.87152,-1.52504 z m -0.4356,3.04991 v 0 c 0,-1.30713 4.79262,0.65352 6.09981,0.87143 h 0.21792 c -0.43584,-0.21791 -0.65366,-0.21791 -0.65366,-0.43568 2.17855,-1.3071 4.13918,0.65352 6.53555,-0.87135 -1.74271,0.21775 -3.26782,0.21775 -2.61414,-0.43575 0.87143,-0.21793 9.80323,0 9.80323,0 0,5.66404 -11.11034,2.17855 -13.50682,3.70341 1.3072,-1.08928 4.3571,-1.30703 5.66423,-1.52486 -1.30713,-0.65368 -3.26775,-0.43577 -5.22839,-0.43577 0,0.21784 0,0.21784 0,0.21784 0,0 0,0 -0.21792,-0.21784 -2.17856,0.43577 -4.35709,0.6536 -5.88196,0.6536 0.21775,-0.21783 0.21775,-0.21783 0.4356,-0.6536 -1.30696,0.43577 -1.30696,0 -1.74273,-0.21791 z m 9.80325,6.31773 c -1.96063,0.87136 -3.92136,1.30711 -6.09981,1.74279 1.30709,0 5.22836,-1.30702 2.39637,0.6536 0.43577,0 1.74281,0.21776 2.17856,0.21776 -4.13918,2.39639 -14.16034,5.88212 -17.86392,0.65368 2.83208,-1.7428 5.66421,0.21783 8.49627,-1.7428 -7.84259,-0.21792 10.23899,-1.08926 10.89253,-1.52503 z m -12.63532,12.8533 c -1.96062,0.65353 -15.90321,0.65353 -8.71413,-0.65366 -2.83196,0.65366 10.89269,-4.13917 8.71413,0.65366 z m -3.0499,-15.68529 c -0.8715,0.21784 -1.08928,0 -1.96074,0.21784 1.52498,-0.87152 3.05002,-1.08927 4.79281,-1.30712 -0.43576,1.08928 -1.30721,1.52488 -2.83207,1.08928 z m -12.63538,-6.53565 c 1.52487,-1.08928 6.75334,-0.65352 9.80324,-0.65352 0.65359,-0.21783 1.3071,-0.21783 1.96064,-0.21783 -0.21778,0.21783 -1.08924,0.21783 -1.96064,0.21783 -0.43562,0 -1.08927,0.21776 -1.30704,0.21776 0.21777,0.21792 0.4356,0.43576 0.4356,0.65369 -5.88189,0.65344 -6.53541,0.87135 -2.17846,0.65344 -1.30705,0.87141 -5.22847,1.30719 -7.18917,1.30719 -2.39625,0.2179 1.30718,-1.30719 4.79284,-2.3964 -1.74286,-0.43568 -3.0499,-0.21792 -4.35701,0.21784 z m -2.83208,0.87137 c -1.3071,0.87141 -2.17854,0.87141 -3.04989,0.21791 1.08911,-0.65352 2.17838,-0.65352 3.04989,-0.21791 z m -6.75349,2.61429 c 1.08928,-0.21782 2.17855,-0.21782 3.26783,-0.21782 -0.87137,0.6535 -1.96063,1.08927 -3.04991,0.87134 -0.43575,-0.21784 -0.87143,-0.43575 -0.21792,-0.65352 z m -1.30711,-1.52503 c 1.30711,0.43583 0.87153,0.87143 -1.52487,1.08928 -0.87143,1.3072 -2.39648,1.96064 -4.35711,1.52503 1.52504,-1.96063 3.48568,-2.83216 5.88198,-2.61431 z m -8.27836,4.35711 c 1.08928,-0.65352 1.74287,-0.65352 3.04991,-0.65352 -0.21776,0 -0.43559,-0.21785 -0.65353,-0.21785 1.08928,-0.43582 1.96063,-0.65368 3.0499,-0.65368 -0.43558,0 -0.6535,-0.21775 0,-0.43558 5.01056,-0.65368 10.02117,3.0499 15.46745,0.87135 -1.08924,0.21791 -1.3071,0 -1.74269,-0.21791 0.87135,0 1.74269,-0.21786 2.17846,-0.65344 -4.13917,-0.21793 5.01063,-1.7428 5.88197,-1.7428 -5.01052,2.39624 5.22846,1.52487 4.35709,2.17838 -7.18908,4.13918 -18.51742,0.87153 -26.3601,2.3964 0,1.52504 -1.30704,1.96065 -3.70342,1.3072 1.08928,-0.65369 2.39638,-1.3072 3.70342,-1.3072 0,0 0,-0.21784 0,-0.21784 -0.65352,0 -1.52489,0.43576 -1.96071,0.6536 -1.96064,0.43568 -4.13917,0.65351 -6.09982,0.43568 0.87144,-1.30704 2.17855,-1.96072 3.70359,-1.74279 -0.43576,0.21791 -0.65367,0 -0.87152,0 z m -18.73512,14.16027 c 1.30696,-1.30698 6.75333,-5.88191 10.23899,-7.18909 -0.21783,0 -0.43575,0 -0.65366,0 0.87143,-0.65345 1.74294,-1.30713 2.6143,-1.74273 0.21791,0.65345 0,1.08928 -0.21784,1.30711 0.87136,0 1.30711,0.43562 0.87136,1.7428 5.44636,-1.30718 14.16033,1.74273 13.28891,1.74273 5.22844,-0.21786 10.45689,-8.49623 17.42816,-6.09983 -0.43562,-0.21785 -6.31774,3.70358 -6.75334,4.57493 -2.61431,5.44622 0.4356,2.17855 4.13919,5.22846 -1.7428,0.65353 -5.44639,0.21776 -6.97126,1.30703 0.21776,-0.21775 0.87143,1.08928 0.87143,1.08928 -5.01061,2.3964 -34.63849,3.48567 -35.94552,1.96064 -0.43575,-0.21777 -2.39638,0 -3.92142,0 4.35702,-3.48551 6.75351,-3.26767 11.98194,-3.92133 -2.17853,-0.87137 -5.44636,-0.43562 -6.97124,0 z m -6.31772,4.79284 c 1.30702,-0.21783 1.30702,0.43561 1.08926,1.74279 -0.87151,0.21784 -2.61431,0.21784 -3.92141,0.65352 0.87151,-0.87144 1.96062,-1.74279 2.83215,-2.39631 z m -70.14819,242.25084 c 0.65353,-1.52486 1.30705,-2.39638 2.83208,-2.83199 0.65345,-1.52508 0.65345,-3.04997 1.74271,-1.74293 -3.0499,8.93204 -3.48551,2.6143 -4.57479,4.57492 z m 22.2208,42.4811 c -12.63539,0.4357 -6.9712,-6.53563 -5.4463,-6.31773 2.17848,0.65351 4.13917,2.83206 5.01053,3.92128 0,-0.21786 0,-0.65345 0,-0.87138 0.87153,0.87138 0.87153,1.96065 0.43577,3.26783 z m 0.21792,-23.7458 c 3.70334,-8.93191 0.87136,-23.09237 -12.41755,-24.61726 -3.48574,-11.76404 -4.57494,3.04997 -15.24962,1.52489 10.67468,-13.72453 18.95304,-15.90308 30.71709,-4.13914 3.7034,3.92129 12.41754,16.12107 11.98176,19.38886 5.88205,1.74284 1.52504,5.01057 4.35703,9.14975 -6.0998,8.06054 -12.63539,-0.21782 -19.38871,-1.3071 z m 18.08159,-49.45229 c 0.65359,-1.08925 1.30712,3.26776 0.87135,4.13918 -2.17839,4.5748 -1.30697,-3.48574 -0.87135,-4.13918 z m 17.86384,74.28737 c -0.43575,-4.13918 -6.75334,5.88188 -8.27836,5.44629 0,0 -9.58548,-16.99249 -13.50682,-6.09987 -10.23899,-6.09992 10.02116,-7.84271 11.11044,-7.18919 0.21783,-1.96063 0.43575,-21.34942 5.44629,-13.94241 2.17855,3.70341 5.66421,0.87136 8.93188,1.30711 6.75349,1.08927 5.88212,7.62477 8.27836,12.1997 -0.43559,-1.52503 -0.65352,-2.17855 0,0.21784 0,0 0,-0.21784 0,-0.21784 0.65367,2.83199 2.39639,8.93182 2.39639,8.4962 -0.65351,0 -14.37818,0 -14.37818,-0.21783 z m -14.59609,-86.7049 c 0.87143,-0.87145 2.39646,-1.52503 3.48572,-1.52503 1.30713,0.21784 1.30713,1.30712 1.30713,2.17848 -2.17855,0 -3.92142,-0.65345 -4.79285,-0.65345 z m 12.63546,45.9666 c -0.43575,2.83214 -1.96063,4.13918 -5.01055,3.92141 -3.04999,-0.87151 4.35703,-3.26781 5.01055,-3.92141 z m -5.22846,-44.00596 c 0,0.65352 0,1.30709 0,2.17853 -0.65352,0 -0.43575,-1.30718 0,-2.17853 z m 28.10292,90.62614 c 1.52487,-4.57477 8.9318,1.52503 9.14972,3.92134 -2.39646,3.26777 -10.45691,0.87153 -9.14972,-3.92134 z m 93.24047,-198.68047 c -6.97139,3.92126 0.21777,-8.0606 9.80322,-8.49621 -2.39636,0.43561 -3.0499,-0.43581 -1.52497,-2.17854 -6.97127,0.21783 -18.73517,8.27837 -24.18145,6.97116 -5.88199,-1.30711 -23.96376,13.50681 -13.94258,13.28892 -6.09981,2.17853 -15.03171,1.74293 -21.56726,4.57501 1.30709,0 5.01054,-0.87143 6.09982,0.21783 -3.70345,1.08928 -20.26018,6.97126 -19.1709,9.36765 -3.04991,1.74278 -4.13918,11.54603 -9.80339,11.32827 0.43575,0 2.39637,-8.27837 2.61431,-9.14987 -1.30721,1.30708 -6.31774,10.02122 -5.88198,11.54609 0.43561,0 0.87142,0 1.30704,0 -0.87143,1.96073 -2.39631,3.48575 -4.57479,4.13918 0,1.30719 0.65344,1.52511 1.52488,1.74296 -1.7428,2.17839 -6.31773,1.30704 -3.26783,4.7927 -3.92133,3.0499 -9.14972,3.70343 -13.28891,6.53556 0,0 0.21785,0.43559 0.21785,0.43559 -16.77455,6.97127 -31.58843,14.37822 -33.76691,34.20274 -0.65366,5.01055 -6.53563,27.23147 -13.94256,26.36013 -6.75332,-0.87152 6.09981,-33.11345 5.22839,-35.72778 0,-0.21781 -18.73521,-3.48548 -17.86369,-5.22844 -2.83215,0.65368 -5.66422,0 -8.93203,1.08926 1.08926,0.87146 0.87143,0.87146 2.17854,0.21793 -1.96063,3.0499 -4.35702,4.79269 -3.48566,6.75334 -5.44623,2.39638 -10.45676,-8.71397 -17.86369,-4.57478 -11.11043,5.88188 -19.17103,11.11034 -25.48878,22.22078 -0.21774,0 -0.21774,0 -0.43558,0 -1.52504,3.92142 -34.20273,57.94847 -19.17105,61.21628 20.47817,4.3571 21.34952,-24.39934 43.57031,-20.69591 -2.83199,5.88198 -7.84254,10.02116 -10.45684,15.90322 -1.7428,3.70341 -3.48558,5.66407 -5.22847,7.8426 -2.61414,4.13918 -25.27067,22.87446 -5.4462,23.74581 23.74581,1.52503 6.09988,23.96375 1.30702,36.16338 -4.13919,10.89266 -12.85313,46.40235 7.62485,37.68837 9.8034,-4.13918 10.02115,10.45676 11.5462,16.12098 -0.65368,1.08927 -8.06054,7.62484 -8.06054,7.62484 -0.43576,-3.26784 3.26767,-14.81393 -1.3071,-16.55673 -9.14973,-3.26777 -9.80341,18.51735 -14.37818,16.55673 -8.71413,-3.48567 -4.35711,-37.03487 -10.89268,-39.21326 -0.65352,0.87134 -1.30701,2.39624 -1.30701,3.26767 -0.65361,-0.21777 -1.08928,-0.4356 -1.52507,-0.65352 -1.74268,-6.75334 4.13919,-13.72465 3.70361,-20.91381 -0.43577,-6.31767 -1.30713,-11.76391 0.43558,-18.08155 -5.88187,-1.74295 -11.32827,-5.88213 -14.37818,-13.50681 -1.08927,-2.83207 0.21794,-16.77465 -2.83199,-17.42817 -1.96069,-8.06046 -5.6642,2.39631 -9.36761,1.30703 -4.13918,-1.08911 -5.44639,-15.03168 -8.93188,-15.03168 11.54601,-62.95908 37.25246,-123.08618 74.72294,-175.37042 18.29952,-25.70653 39.64909,-49.01667 63.177,-70.14826 7.62484,-6.97132 16.99247,-15.24953 28.75635,-11.11051 1.96064,0.65368 8.06053,0.21792 11.54619,-2.61414 -0.21791,0 -0.43576,0 -0.43576,0 -1.96063,0.43575 -7.84261,1.30717 -6.97125,0.65351 0.87144,-0.65351 3.26782,-0.65351 6.97125,-0.65351 0.43576,0 0.65366,0 0.65366,0 0,0 -0.2179,0 -0.2179,0 9.14971,0.43575 23.74581,2.17854 28.97426,0.87136 0.87136,-0.65344 1.96064,-1.30712 1.96064,-1.30712 0,0.65368 -0.87136,1.08927 -1.96064,1.30712 -0.87136,0.65366 -1.30718,0.87143 1.08928,0.65366 3.70343,-2.83214 9.80325,-2.17855 11.32828,-4.35704 -1.30722,0.21786 -1.96065,0.43562 -3.26784,0.65346 1.08928,-0.65346 2.17856,-1.08926 3.26784,-1.74271 1.08928,-0.87144 -5.22847,-1.30719 -4.13919,-2.17855 4.13919,-3.0499 18.73527,-3.48566 15.24952,-0.87137 -1.52486,0.65346 -3.0499,1.0892 -4.57476,1.30712 0.21776,0.87136 3.4855,0.21777 4.7927,0.65353 -4.7927,1.30711 1.08928,0.21783 -2.17856,2.83198 -0.65352,0 11.9818,-3.0499 9.58548,-1.08926 -3.0499,-0.21786 -4.13911,1.08926 -3.70349,3.26782 3.48566,3.48566 13.94256,-6.09982 16.77454,-6.75335 -0.21781,0 -21.56725,-0.43575 -18.9531,-2.39637 3.04993,1.3071 5.66422,1.08928 7.84277,-0.87145 -0.65367,-0.43575 -7.40702,-0.65359 -7.40702,-0.65359 -1.30709,-2.83206 8.06046,-4.13919 9.58548,-4.7927 -2.61425,0.87136 -7.18908,0.43577 -9.80339,1.74279 0.43585,0 0.87144,0 1.30719,-0.21776 -2.39637,1.30697 -4.57493,1.96063 -7.18909,1.7428 7.62484,-5.22846 11.54611,-5.22846 22.00302,-5.66422 -1.74285,0.87135 -3.26776,1.30711 -5.22845,1.74288 5.01061,-1.08928 9.58541,-1.08928 14.37824,-0.87153 -1.74293,0.43576 -10.23907,2.61431 -7.62491,2.61431 -5.66406,2.61415 18.08176,-5.44636 19.38879,-1.30717 0.21783,0.2179 -1.08926,2.17854 -1.52487,2.17854 10.02107,0 18.29944,3.26782 27.88499,3.48565 0,0.21792 -0.21791,0.43569 -0.21791,0.65353 1.08928,-0.21784 2.17856,0 3.0499,1.08927 -1.08928,0.21793 -2.17852,0 -2.83199,0.65351 1.08926,-0.21776 2.3964,0 3.26774,0.43576 -1.30709,0.43575 -1.96062,0.43575 -2.83214,1.08928 0.87152,0.43575 12.41755,4.13919 12.19979,4.57494 -0.87152,5.2283 -9.36765,2.83205 -13.50683,2.39624 -0.43575,1.08926 -1.3071,0.21791 -1.74286,1.52502 2.39639,-0.21784 3.26777,2.83207 6.31766,2.39631 -2.39624,7.84275 -2.17848,3.26776 -11.11035,5.0107 -0.21791,-0.43575 10.02115,4.57478 4.57492,5.88198 -6.75348,1.30711 -14.59608,-3.48574 -18.73526,-5.44639 -1.52502,-0.87134 -19.38872,1.30721 -18.73521,0.21793 3.92125,-5.22846 14.16025,-3.48567 19.60664,-6.09983 -4.35711,-1.30718 11.32827,-4.13916 6.09982,-7.84276 0,3.48568 -8.49627,1.08928 -8.27838,0.87152 2.17856,-1.30711 4.3571,-1.96079 6.97119,-1.74293 -1.30697,-0.65345 -7.40694,-0.87137 -7.6247,-0.87137 1.08928,-0.21784 1.96064,-0.43561 3.04991,-0.87136 -0.6536,-0.65353 -1.52504,-1.30717 -2.3964,-1.30717 -1.30716,0 -2.83206,0.4358 -3.70341,1.30717 1.30703,-1.08928 2.61414,-1.30717 3.70341,-1.30717 0,0 0.21792,0 0.43577,0 -2.61432,-1.30714 -12.41755,1.08926 -10.45691,-0.43563 -1.52504,0 -4.13919,0 -6.97133,0.21776 2.17856,0.21787 4.35702,1.30713 6.53555,1.30713 -4.13918,3.48571 -11.98178,7.18909 -20.47797,9.80339 1.74273,-0.43576 1.08927,0.43561 1.30711,0.87142 -1.52505,0 -1.96064,-0.43581 -1.30711,-0.87142 -1.30719,0.43561 -2.83208,0.87142 -4.35712,1.30703 0,0.43576 0.21794,0.65366 0,1.08927 1.30722,-0.65351 7.18912,0.21784 7.84278,1.74288 0,0.43561 -0.65366,0.87141 -0.43576,1.30703 1.30711,0.87152 3.92128,0.21783 4.13918,1.08928 -5.88197,1.52504 -15.9032,2.61429 -22.00301,3.0499 -1.52489,0 -0.43568,-0.65351 0.65358,-1.30703 -1.74286,-0.21783 -4.35701,0.21776 -5.44629,0.21776 1.96062,-1.52487 7.407,-4.57478 11.54618,-6.53543 -4.57501,0.65345 -8.93202,0.65345 -12.41754,-0.43582 -0.43584,1.96071 4.13918,1.30719 7.6247,1.7428 -5.01063,4.13918 -17.86377,5.88211 -25.48863,5.01069 0.65354,0.21776 1.30719,0.65352 1.96065,1.08928 -6.75334,6.09981 -22.65656,11.11043 -30.93491,16.55671 6.53564,-1.08927 5.88198,1.30704 1.52504,5.882 15.46745,-0.6537 13.94241,8.49618 26.35994,8.06043 4.13919,2.83207 -1.96062,6.75349 -2.39636,8.93189 1.52502,-0.21777 4.35702,-0.21777 3.05006,1.30709 -1.08928,0.21793 -1.96079,-0.21781 -3.05006,-0.65343 0.43574,0.87136 2.6143,1.30712 7.84275,1.30712 6.09981,-6.75349 -0.87143,-9.14987 10.89253,-13.94256 14.81392,-5.882 3.92141,-5.882 3.7035,-13.50683 15.90313,-3.48568 9.58539,-17.64602 30.71704,-7.40701 6.09981,2.83222 24.39934,8.27837 28.97429,-0.21785 -2.83208,4.79287 -1.08927,5.44632 1.52487,6.31773 -1.08912,-0.6535 -1.7428,-1.08927 -2.39623,-1.96069 5.4463,-7.40694 17.21016,8.27836 7.84254,11.54618 1.30719,0.87137 2.61428,2.17856 6.31772,2.17856 l -0.21785,0.21781 c -3.04995,5.22846 12.41749,3.70344 11.11053,5.22846 -2.17856,2.17855 -12.19979,3.04991 -16.55674,4.13919 0.4356,2.17855 18.29953,-2.39639 19.8244,-3.04991 5.44629,18.29953 -49.23444,16.55673 -60.5627,25.70646 1.30711,0 28.97428,-6.53558 26.79573,-2.39639 -1.96064,3.26783 -6.97119,2.39639 -9.80323,4.13918 1.52486,0 3.26765,0.43576 4.13918,0.43576 -9.80342,11.98177 12.19962,10.4569 11.11042,12.6353 -3.48575,3.92142 -22.43869,6.97133 -26.57788,9.14988 z m -30.71723,-77.77301 c -2.17845,1.08925 -6.97117,2.61413 -9.14973,2.83198 0.43578,-0.21785 0.65353,-0.65352 1.08928,-0.87134 2.61433,-1.3072 5.22846,-2.61433 8.06045,-1.96064 z m 62.08773,44.65955 c 3.48572,0.65352 -3.04991,2.61415 0,0 z m -0.4356,5.44621 c -3.26782,2.61431 -8.27836,-1.08927 -10.89267,-3.0499 5.88197,-0.87144 8.06053,1.52503 10.89267,3.0499 z m -8.93203,13.50676 c -2.17848,4.35708 -10.23901,-0.21785 -9.58545,-1.30697 0.21785,-0.65367 0.87148,-0.87151 1.30709,-1.30712 1.9607,2.832 4.79285,3.70337 8.27836,2.61409 z m 3.26782,2.6143 c 1.96062,-1.96064 4.13918,-3.70351 6.75349,-4.79278 0,0.6536 0.87134,0.87151 0.65351,1.30712 -0.65351,1.30719 -3.92134,2.17854 0.43561,2.17854 -1.30705,3.0499 -8.71396,3.26784 -7.84261,1.30712 z m 23.52791,-5.88206 c 0,0 -8.93181,4.57494 -8.4962,3.70359 0.87149,-1.08928 1.74291,-1.7428 3.05005,-2.17855 -2.17856,0 -22.22094,-1.52504 -22.00302,-1.52504 0.87136,-2.1784 4.13919,-1.30702 5.01054,-3.4855 -0.65353,0 -1.30719,-0.21792 -1.30719,-0.65368 7.84274,-2.3963 13.94258,-14.16034 22.43885,-14.16034 2.61414,0 -7.62484,8.27837 -7.84277,8.93188 1.96066,-1.30702 3.92135,-1.30702 6.09983,-0.65351 -1.08928,0.43577 -1.5249,1.08928 -1.74272,1.96064 1.08928,0 2.17853,0 3.26774,0 0,0.21791 -0.43577,0.65366 -0.43577,0.65366 0.87145,0 1.7428,-0.43575 2.61432,-0.65366 1.96063,0.65366 4.35694,0.65366 5.66405,0 -0.43559,1.30719 -1.30711,2.39647 -1.96063,4.35709 0.43576,-0.21791 1.52504,-0.43576 2.39638,-0.43576 -1.525,3.0499 -1.0892,1.30711 -2.39638,4.35704 1.96063,0.2179 1.52504,-0.4356 2.83208,-0.87138 -3.70343,10.239 -3.26784,4.57494 -7.18916,0.65352 z m 111.10436,-90.62623 c -1.74285,5.22846 -8.27837,-3.26775 -9.14972,0 1.5249,0.87143 10.45677,2.17856 9.3675,5.6642 -0.65353,2.39632 -11.32828,-1.52502 -12.85314,-1.96062 -0.65354,1.52488 1.30708,1.52488 -1.96063,1.96062 -0.43584,1.52491 9.36752,1.30704 11.54608,1.7428 -9.36765,3.26783 -19.60662,4.7927 -29.41002,4.7927 -6.31771,1.74287 -10.02106,6.09982 -17.42808,5.88206 0.21791,-0.43576 0.21791,-0.6536 0.43576,-1.08928 -6.75349,1.30704 -14.81392,15.03169 -18.29961,14.5961 -2.3963,-0.21786 -18.73527,-7.62484 -12.85321,-10.89268 -1.30712,-1.30711 -6.09982,-2.17853 -3.26774,-6.0998 -0.43576,-0.21792 -1.08928,-0.21792 -1.3072,0 1.08927,-3.48568 6.97124,-4.13918 9.1498,-6.97119 -2.17856,-0.4358 -7.18915,-0.65367 -6.97126,-1.96071 1.96065,-0.43574 4.7927,1.96071 6.09982,0 -0.65344,0 -5.4463,-2.83214 -7.18909,-2.61428 1.96066,-1.08928 2.17855,-1.74273 0.21793,-2.17849 3.0499,-7.407 -12.85331,-7.407 -17.21026,-6.31774 0.21777,0 0.21777,0.21786 0.4356,0.21786 -1.30711,0.21791 -2.83197,0 -4.13918,-0.65344 0.65369,-0.21793 1.08927,-0.21793 1.30721,-0.65368 -1.30721,-0.65352 -2.61432,-0.87137 -3.92136,-0.43559 1.5249,-2.39647 6.97126,0 8.93189,-2.17856 -0.87135,0 -10.45692,0.87135 -10.02116,-0.65352 1.96072,-3.92142 11.98178,-0.21783 14.16034,-4.35701 -1.30712,0.21782 -2.83201,0 -4.13918,-0.43576 2.39637,-4.57486 24.18156,-5.44622 27.44923,-5.66407 0.87152,-1.52509 3.26782,-1.3072 5.01071,-0.65368 -0.21785,-0.21774 -0.43576,-0.65352 -0.21785,-0.65352 1.08919,-1.52487 9.80324,0 11.5461,0 -1.30709,0 -2.61429,-0.21789 -3.70355,-1.3071 1.08926,-0.43567 2.17853,-0.65352 3.26781,-0.65352 -0.43577,-0.21793 -0.87135,-0.21793 -1.08928,-0.43576 21.78518,-5.01061 45.96674,-3.92135 68.18754,-3.26766 -1.52488,1.30696 -4.13919,2.17838 -7.18909,2.61414 2.39637,-0.21791 4.13918,-0.43576 4.13918,0 -0.21789,0.21792 -8.93189,2.83201 -9.36764,3.48568 2.39644,-0.43578 44.65964,-5.4463 44.22388,-4.79286 -1.30703,2.17853 -10.23904,2.61431 -14.81386,2.83221 -1.30709,2.39626 -18.29958,6.09982 -21.34948,7.84262 2.61426,-0.65352 5.22839,-0.21794 7.84266,0.43575 -0.65358,0.21777 -1.52501,0.43559 -2.39637,0.43559 1.52503,0.21794 3.0499,0.65353 4.57493,1.3072 -1.3071,2.83199 -10.02122,-1.3072 -11.32827,1.74271 -0.43576,0.65352 5.22843,0.21793 4.35695,2.61432 -0.87142,2.3963 -3.70343,0 -4.35695,1.7428 1.30705,0.87134 2.83208,1.3071 4.35695,0.87134 -1.08927,0.87137 -3.48561,1.30719 -5.88198,1.30719 0,0.4356 0.43575,0.65344 0.87137,0.87137 -2.83201,3.26781 -8.27836,0.87135 -11.76389,0.87135 2.39626,1.08927 4.35696,1.96065 6.09981,3.04991 z m 5.44624,9.58556 c 1.74284,0 5.01068,0 6.53556,-0.21792 0.21792,0.21792 -5.01054,-2.17853 -4.79272,-2.83198 1.74281,-0.21793 4.35709,-1.08928 6.09991,-0.87146 -1.74282,3.92136 2.17846,2.39632 3.48551,1.52491 1.30712,1.74292 3.48566,0.21789 5.22846,1.30717 0.21786,-1.30717 13.50681,-0.21791 15.03185,0 -3.48572,1.08928 1.74272,3.48566 0.65346,5.01054 -12.6354,5.44636 -19.38874,0.43575 -31.15275,-0.65353 0.43574,-0.43575 0.8715,-0.65359 1.30709,-0.65359 0.65353,-1.08928 1.30721,-1.30703 2.17855,-2.17855 -1.52502,-0.21776 -3.92129,0.43577 -4.57492,-0.43559 z M 1011.125,849.13755 c -0.2176,7.84261 10.2387,15.68521 7.1886,22.87431 -8.9313,18.9531 8.0604,38.12414 -13.9425,52.06656 -7.62427,4.79269 -17.64594,9.14972 -19.38884,19.17097 -14.1597,2.8321 -1.0885,19.6066 -1.3069,26.5777 -0.6534,16.121 -3.7032,12.6355 -13.7246,21.1319 -10.4569,8.9315 -0.4352,16.55681 -9.3675,27.23131 -8.2783,9.8032 -12.6355,21.5675 -20.26,32.0249 -3.2679,4.356 -18.9532,10.0205 -19.60679,13.5059 -8.49624,1.0896 -15.68532,-1.0895 -23.96369,3.268 -7.84268,4.1394 -16.99247,-1.3063 -19.82446,0.2174 0.21782,-27.8841 -22.00309,-49.0162 -25.27085,-78.20871 -1.30704,-13.5064 -1.74279,-18.7347 -8.06051,-30.9346 -6.53546,-12.8531 -11.98176,-27.23143 -9.36764,-41.82739 1.9607,-10.67474 10.4569,-17.86383 12.85334,-27.88499 2.3963,-10.02125 -2.39644,-25.70648 -5.0106,-35.50983 -2.83213,-10.45693 -3.48565,-23.52795 -10.45686,-32.24208 -6.97121,-8.71401 -18.95316,-20.2601 -14.37823,-32.67765 6.97127,-18.95316 10.23905,-38.55979 -17.21031,-38.12405 -8.49612,0.2179 -7.62477,-16.55669 -17.646,-16.33883 -13.50667,0.43561 -24.39933,15.90309 -35.7276,16.12097 -4.57494,0.21786 -8.49626,-4.13918 -13.28891,-3.92129 -5.88198,0 -10.02117,3.26777 -15.24963,5.22839 -11.5461,3.92136 -20.04236,-7.40691 -27.23146,-14.59599 -9.58547,-9.80339 -11.32827,-22.87447 -20.26016,-32.89564 -5.01056,-5.44627 -10.02121,-11.11049 -13.94257,-17.64591 0.21791,0 0.43574,0 0.65368,0 0,-7.62492 -4.79286,-15.2496 -1.08928,-21.13172 3.92131,-6.09982 6.53544,-14.59604 6.97126,-22.00289 0.4356,-10.4569 -6.97126,-25.48874 -1.52503,-35.0741 4.13917,-7.18923 6.97132,-14.59608 10.23899,-22.22092 4.35704,-9.36764 8.4962,-21.13166 18.73521,-24.83509 5.66421,-2.17856 12.63546,-8.06044 14.37824,-13.94242 1.96062,-6.31774 0.65358,-13.72465 4.79276,-19.38886 5.88199,-8.27837 12.85319,-15.46745 19.1709,-23.528 -0.21784,0 -0.21784,0 -0.43561,0 6.97122,-9.36762 17.64584,1.08928 29.84561,-6.09981 9.80326,-5.44628 22.00298,-11.76402 33.54906,-12.19961 7.62491,-0.21794 14.59612,0 22.43871,-0.21794 3.70359,0 8.49622,-6.97117 11.76404,-1.74278 1.96062,2.61417 3.92126,2.61417 6.0998,0.65351 -0.43559,6.7535 -3.26776,12.41754 -3.26776,19.82456 0,13.28889 12.6354,8.9318 20.47805,11.54612 7.18921,2.39631 34.85627,32.45986 34.42053,9.36762 -0.43561,-20.04239 28.97427,-2.83213 36.38129,-0.21782 10.45687,3.70343 18.51738,5.01053 28.75638,1.3071 7.8428,-2.83213 14.814,2.17842 22.8746,0 4.7925,11.98179 4.1391,14.8138 1.3069,27.0135 -4.3572,-0.65355 -8.932,-11.9818 -12.6354,-16.33888 0.6535,12.63543 12.6354,27.66714 18.5172,38.77765 3.9215,7.407 4.7933,15.24962 8.9323,22.43869 5.0101,8.49628 2.8321,20.26015 8.93157,27.01366 6.53587,7.18909 8.93217,10.8925 11.11077,20.91373 2.8323,13.07107 23.9636,21.56727 26.7951,33.98481 4.1392,17.86377 9.8032,13.50681 24.4001,10.89252 8.2779,-1.7427 16.1209,-6.09982 23.9631,-8.71396 8.4962,20.6959 -13.9424,60.34478 -25.4883,77.33724 -13.2887,19.38881 -34.8565,26.5779 -40.52,51.63081 -1.3079,6.75335 -7.4073,10.23906 -7.4073,17.64602 -0.2183,6.53549 1.3072,13.50683 1.3072,20.69591 z"
               inkscape:connector-curvature="0"
               style="opacity:1;fill:url(#linearGradient866);fill-opacity:1;stroke-width:2.17856" />
          </g>
        </g>
      </g>
      <g
         id="g1033"
         style="fill:url(#linearGradient874);fill-opacity:1" />
      <g
         id="g1035"
         style="fill:url(#linearGradient876);fill-opacity:1" />
      <g
         id="g1037"
         style="fill:url(#linearGradient878);fill-opacity:1" />
      <g
         id="g1039"
         style="fill:url(#linearGradient880);fill-opacity:1" />
      <g
         id="g1041"
         style="fill:url(#linearGradient882);fill-opacity:1" />
      <g
         id="g1043"
         style="fill:url(#linearGradient884);fill-opacity:1" />
      <g
         id="g1045"
         style="fill:url(#linearGradient886);fill-opacity:1" />
      <g
         id="g1047"
         style="fill:url(#linearGradient888);fill-opacity:1" />
      <g
         id="g1049"
         style="fill:url(#linearGradient890);fill-opacity:1" />
      <g
         id="g1051"
         style="fill:url(#linearGradient892);fill-opacity:1" />
      <g
         id="g1053"
         style="fill:url(#linearGradient894);fill-opacity:1" />
      <g
         id="g1055"
         style="fill:url(#linearGradient896);fill-opacity:1" />
      <g
         id="g1057"
         style="fill:url(#linearGradient898);fill-opacity:1" />
      <g
         id="g1059"
         style="fill:url(#linearGradient900);fill-opacity:1" />
      <g
         id="g1061"
         style="fill:url(#linearGradient902);fill-opacity:1" />
    </g>
    <g
       id="computer-laptop"
       transform="matrix(0.9375,0,0,0.9375,148.52146,341.676)">
      <rect
         y="-3.907985e-13"
         x="0"
         height="32"
         width="32"
         id="rect3847"
         style="fill:#566060;fill-opacity:0;stroke:none" />
    </g>
  </g>
</svg>
