<?xml version="1.0" encoding="UTF-8" standalone="no"?>
<svg
   xmlns:dc="http://purl.org/dc/elements/1.1/"
   xmlns:cc="http://creativecommons.org/ns#"
   xmlns:rdf="http://www.w3.org/1999/02/22-rdf-syntax-ns#"
   xmlns:svg="http://www.w3.org/2000/svg"
   xmlns="http://www.w3.org/2000/svg"
   xmlns:xlink="http://www.w3.org/1999/xlink"
   xmlns:sodipodi="http://sodipodi.sourceforge.net/DTD/sodipodi-0.dtd"
   xmlns:inkscape="http://www.inkscape.org/namespaces/inkscape"
   inkscape:version="1.0 (4035a4fb49, 2020-05-01)"
   sodipodi:docname="view.svg"
   id="svg873"
   version="1.1"
   height="32"
   width="32">
  <metadata
     id="metadata879">
    <rdf:RDF>
      <cc:Work
         rdf:about="">
        <dc:format>image/svg+xml</dc:format>
        <dc:type
           rdf:resource="http://purl.org/dc/dcmitype/StillImage" />
      </cc:Work>
    </rdf:RDF>
  </metadata>
  <defs
     id="defs877">
    <linearGradient
       id="_lgradient_0"
       x1="0"
       y1="0.5"
       x2="1"
       y2="0.5"
       gradientTransform="matrix(27.999994,0,0,27.999998,1.9766191,1.9139856)"
       gradientUnits="userSpaceOnUse">
      <stop
         offset="0%"
         stop-opacity="1"
         style="stop-color:rgb(105,227,255)"
         id="stop33" />
      <stop
         offset="100%"
         stop-opacity="1"
         style="stop-color:rgb(0,255,194)"
         id="stop35" />
    </linearGradient>
    <linearGradient
       gradientUnits="userSpaceOnUse"
       y2="806.61218"
       x2="847.1814"
       y1="173.54669"
       x1="172.54568"
       id="linearGradient839"
       xlink:href="#linearGradient837"
       inkscape:collect="always" />
    <linearGradient
       id="linearGradient837"
       inkscape:collect="always">
      <stop
         id="stop833"
         offset="0"
         style="stop-color:#00d4aa;stop-opacity:1" />
      <stop
         id="stop835"
         offset="1"
         style="stop-color:#005ce5;stop-opacity:1" />
    </linearGradient>
  </defs>
  <sodipodi:namedview
     inkscape:current-layer="view-history"
     inkscape:window-maximized="1"
     inkscape:window-y="0"
     inkscape:window-x="0"
     inkscape:cy="16"
     inkscape:cx="-5.6752635"
     inkscape:zoom="11.033537"
     showgrid="false"
     id="namedview875"
     inkscape:window-height="1015"
     inkscape:window-width="1920"
     inkscape:pageshadow="2"
     inkscape:pageopacity="0"
     guidetolerance="10"
     gridtolerance="10"
     objecttolerance="10"
     borderopacity="1"
     inkscape:document-rotation="0"
     bordercolor="#666666"
     pagecolor="#ffffff" />
  <g
     transform="translate(-250.00021,54.000004)"
     id="view-refresh">
    <path
       id="path836"
       style="opacity:0.001"
       d="m 282.00021,-38.000004 16,0 0,16 -16,0 z" />
    <g
       id="g841"
       transform="translate(281.97246,-37.000109)">
      <g
         transform="translate(-485.03396,-41.017475)"
         id="layer12-0">
        <path
           id="path838"
           style="fill:#dedede"
           d="m 499.06185,49.01758 c 0,3.31371 -2.68629,6 -6,6 -3.28006,0 -5.94034,-2.63316 -5.99414,-5.90039 a 1,1 0 0 1 -0.006,-0.09961 1,1 0 0 1 1,-1 1,1 0 0 1 1,1 c 0,2.20914 1.79086,4 4,4 2.20914,0 4,-1.79086 4,-4 0,-2.20914 -1.79086,-4 -4,-4 l 0,2 -4,-3 4,-3 0,2 c 3.31371,0 6,2.68629 6,6 z" />
      </g>
    </g>
  </g>
  <g
     style="clip-rule:evenodd;fill-rule:evenodd;stroke-linejoin:round;stroke-miterlimit:1.41421"
     id="view-history">
    <rect
       ry="0.91472864"
       y="0"
       x="0"
       height="32"
       width="32"
       id="rect817-5"
       style="fill:#ffff96;fill-opacity:0;stroke-width:1.04154;stroke-miterlimit:1.41421;stroke-dasharray:none" />
    <g
       transform="matrix(0.02459016,0,0,0.02459016,3.7278681,3.9640204)"
       id="view-refresh-3">
      <path
         inkscape:connector-curvature="0"
         style="fill:url(#linearGradient839);fill-opacity:1"
         id="view-history-6"
         d="M 69.3,12 C 39.2,12 14.1,37.1 14.1,67.2 v 98.1 c -1,0 -1.8,0.8 -1.8,1.8 0,1 0.8,1.8 1.8,1.8 V 188.5 797 c -5.4,5.4 -5.4,14.2 0,19.6 5.4,5.4 14.2,5.4 19.6,0 h 451.5 c 10.8,0 19.6,-8.8 19.6,-19.6 0,-10.8 -8.8,-19.6 -19.6,-19.6 H 53.3 V 188.7 h 785.2 v 314.1 c 0,10.8 8.8,19.6 19.6,19.6 10.8,0 19.6,-8.8 19.6,-19.6 V 188.7 169.1 c 1,0 1.8,-0.8 1.8,-1.8 0,-1 -0.8,-1.8 -1.8,-1.8 v 0 -98.3 C 877.7,37.1 852.6,12 822.5,12 Z m 0,39.3 h 753.3 c 9.2,0 15.9,6.8 15.9,15.9 v 82.2 H 53.3 V 67.2 c 0,-9.1 6.8,-15.9 16,-15.9 z m 82.2,255.2 v 39.3 H 230 v -39.3 z m 137.4,0 v 39.3 h 451.5 v -39.3 z m -137.4,98.1 v 39.3 H 230 v -39.3 z m 137.4,0 v 39.3 H 740.4 V 404.6 Z M 151.5,502.8 V 542 H 230 v -39.3 h -78.5 z m 137.4,0 V 542 H 563.7 V 502.7 H 288.9 Z m 431.8,19.6 c -108.2,0 -196.3,88.1 -196.3,196.3 0,108.2 88.1,196.3 196.3,196.3 47,0 90.1,-16.5 123.9,-44.2 L 961.8,988 990,959.8 872.8,842.6 C 900.5,808.8 917,765.7 917,718.7 917,610.5 828.9,522.4 720.7,522.4 Z m 0,39.2 c 87,0 157,70.1 157,157 0,87 -70.1,157 -157,157 -87,0 -157,-70.1 -157,-157 0,-86.9 70.1,-157 157,-157 z m -569.2,39.3 v 39.3 H 230 v -39.3 z m 137.4,0 v 39.3 h 196.3 v -39.3 z" />
    </g>
  </g>
</svg>
